<svg aria-hidden="true" style="position: absolute; width: 0; height: 0; overflow: hidden;" version="1.1" xmlns="http://www.w3.org/2000/svg" xmlns:xlink="http://www.w3.org/1999/xlink">
<defs>
<symbol id="icon-facebook" viewBox="0 0 48 48">
<title>facebook</title>
<path d="M0 44c0 2.21 1.79 4 4 4h40c2.21 0 4-1.79 4-4l-0-40c0-2.21-1.79-4-4-4h-40c-2.21 0-4 1.79-4 4v40zM25 42v-16h-4v-6h4c0-10.31 0.439-11 13-11v6c-6.62 0-6 0.37-6 5h6v6h-6v16h-7z"></path>
</symbol>
<symbol id="icon-envelope" viewBox="0 0 32 32">
<title>envelope</title>
<path d="M20.139 18.934l9.787-7.999-13.926-9.833-13.89 9.833 9.824 8.032 8.205-0.033zM12.36 19.936l-9.279 10.962h25.876l-9.363-10.9-7.234-0.062zM20.705 19.803l9.291 11.084v-18.952l-9.291 7.868zM2.004 11.935v18.952l9.291-11.084-9.291-7.868z"></path>
</symbol>
<symbol id="icon-social-facebook" viewBox="0 0 24 24">
<title>social-facebook</title>
<path d="M13 10h3v3h-3v7h-3v-7h-3v-3h3v-1.255c0-1.189 0.374-2.691 1.118-3.512 0.744-0.823 1.673-1.233 2.786-1.233h2.096v3h-2.1c-0.498 0-0.9 0.402-0.9 0.899v2.101z"></path>
</symbol>
<symbol id="icon-social-linkedin" viewBox="0 0 24 24">
<title>social-linkedin</title>
<path d="M8 19h-3v-10h3v10zM19 19h-3v-5.342c0-1.392-0.496-2.085-1.479-2.085-0.779 0-1.273 0.388-1.521 1.165 0 1.262 0 6.262 0 6.262h-3c0 0 0.040-9 0-10h2.368l0.183 2h0.062c0.615-1 1.598-1.678 2.946-1.678 1.025 0 1.854 0.285 2.487 1.001 0.637 0.717 0.954 1.679 0.954 3.030v5.647z"></path>
<path d="M8.050 6.5c0 0.828-0.694 1.5-1.55 1.5s-1.55-0.672-1.55-1.5c0-0.828 0.694-1.5 1.55-1.5s1.55 0.672 1.55 1.5z"></path>
</symbol>
<symbol id="icon-instagram" viewBox="0 0 24 28">
<title>instagram</title>
<path d="M16 14c0-2.203-1.797-4-4-4s-4 1.797-4 4 1.797 4 4 4 4-1.797 4-4zM18.156 14c0 3.406-2.75 6.156-6.156 6.156s-6.156-2.75-6.156-6.156 2.75-6.156 6.156-6.156 6.156 2.75 6.156 6.156zM19.844 7.594c0 0.797-0.641 1.437-1.437 1.437s-1.437-0.641-1.437-1.437 0.641-1.437 1.437-1.437 1.437 0.641 1.437 1.437zM12 4.156c-1.75 0-5.5-0.141-7.078 0.484-0.547 0.219-0.953 0.484-1.375 0.906s-0.688 0.828-0.906 1.375c-0.625 1.578-0.484 5.328-0.484 7.078s-0.141 5.5 0.484 7.078c0.219 0.547 0.484 0.953 0.906 1.375s0.828 0.688 1.375 0.906c1.578 0.625 5.328 0.484 7.078 0.484s5.5 0.141 7.078-0.484c0.547-0.219 0.953-0.484 1.375-0.906s0.688-0.828 0.906-1.375c0.625-1.578 0.484-5.328 0.484-7.078s0.141-5.5-0.484-7.078c-0.219-0.547-0.484-0.953-0.906-1.375s-0.828-0.688-1.375-0.906c-1.578-0.625-5.328-0.484-7.078-0.484zM24 14c0 1.656 0.016 3.297-0.078 4.953-0.094 1.922-0.531 3.625-1.937 5.031s-3.109 1.844-5.031 1.937c-1.656 0.094-3.297 0.078-4.953 0.078s-3.297 0.016-4.953-0.078c-1.922-0.094-3.625-0.531-5.031-1.937s-1.844-3.109-1.937-5.031c-0.094-1.656-0.078-3.297-0.078-4.953s-0.016-3.297 0.078-4.953c0.094-1.922 0.531-3.625 1.937-5.031s3.109-1.844 5.031-1.937c1.656-0.094 3.297-0.078 4.953-0.078s3.297-0.016 4.953 0.078c1.922 0.094 3.625 0.531 5.031 1.937s1.844 3.109 1.937 5.031c0.094 1.656 0.078 3.297 0.078 4.953z"></path>
</symbol>
<symbol id="icon-eye" viewBox="0 0 32 32">
<title>eye</title>
<path d="M16 6c-8.837 0-16 10-16 10s7.163 10 16 10 16-10 16-10-7.163-10-16-10zM16 22c-3.313 0-6-2.687-6-6s2.687-6 6-6 6 2.687 6 6-2.687 6-6 6zM16 12c-2.209 0-4 1.791-4 4s1.791 4 4 4 4-1.791 4-4-1.791-4-4-4z"></path>
</symbol>
<symbol id="icon-mobile" viewBox="0 0 32 32">
<title>mobile</title>
<path d="M23 0h-14c-1.65 0-3 1.35-3 3v26c0 1.65 1.35 3 3 3h14c1.65 0 3-1.35 3-3v-26c0-1.65-1.35-3-3-3zM12 1.5h8v1h-8v-1zM16 30c-1.105 0-2-0.895-2-2s0.895-2 2-2 2 0.895 2 2-0.895 2-2 2zM24 24h-16v-20h16v20z"></path>
</symbol>
<symbol id="icon-linkedin1" viewBox="0 0 32 32">
<title>linkedin1</title>
<path d="M29 0h-26c-1.65 0-3 1.35-3 3v26c0 1.65 1.35 3 3 3h26c1.65 0 3-1.35 3-3v-26c0-1.65-1.35-3-3-3zM12 26h-4v-14h4v14zM10 10c-1.106 0-2-0.894-2-2s0.894-2 2-2c1.106 0 2 0.894 2 2s-0.894 2-2 2zM26 26h-4v-8c0-1.106-0.894-2-2-2s-2 0.894-2 2v8h-4v-14h4v2.481c0.825-1.131 2.087-2.481 3.5-2.481 2.488 0 4.5 2.238 4.5 5v9z"></path>
</symbol>
<symbol id="icon-adobephotoshop" viewBox="0 0 32 32">
<title>adobephotoshop</title>
<path fill="#00c8ff" style="fill: var(--color1, #00c8ff)" d="M0 0.4v31.2h32v-31.2zM1.333 1.733h29.333v28.533h-29.333zM7.733 7.707c0-0.089 0.187-0.155 0.299-0.155 0.859-0.044 2.117-0.067 3.437-0.067 3.696 0 5.133 2.027 5.133 4.621 0 3.387-2.456 4.84-5.469 4.84-0.507 0-0.68-0.023-1.033-0.023v5.123c0 0.111-0.044 0.155-0.153 0.155h-2.059c-0.111 0-0.153-0.040-0.153-0.151zM10.1 14.789c0.307 0.021 0.549 0.021 1.080 0.021 1.56 0 3.027-0.549 3.027-2.661 0-1.693-1.048-2.552-2.829-2.552-0.528 0-1.033 0.021-1.276 0.044zM21.576 13.205c-1.056 0-1.408 0.528-1.408 0.968 0 0.484 0.24 0.813 1.649 1.54 2.091 1.013 2.749 1.98 2.749 3.409 0 2.133-1.627 3.28-3.827 3.28-1.168 0-2.16-0.244-2.733-0.573-0.087-0.044-0.107-0.109-0.107-0.22v-1.956c0-0.133 0.064-0.177 0.152-0.112 0.832 0.551 1.803 0.792 2.683 0.792 1.056 0 1.496-0.44 1.496-1.035 0-0.484-0.307-0.903-1.649-1.607-1.893-0.907-2.685-1.827-2.685-3.369 0-1.716 1.341-3.147 3.673-3.147 1.147 0 1.952 0.176 2.392 0.373 0.109 0.067 0.133 0.176 0.133 0.264v1.827c0 0.111-0.067 0.177-0.2 0.133-0.592-0.352-1.467-0.573-2.319-0.568z"></path>
</symbol>
<symbol id="icon-apachenetbeanside" viewBox="0 0 32 32">
<title>apachenetbeanside</title>
<path fill="#1b6ac6" style="fill: var(--color2, #1b6ac6)" d="M15.984 0c-0.003 0.001-0.004 0.002-0.006 0.003l0.001-0c-0.011 0.002-0.022 0.004-0.031 0.008l0.001-0c-0.003 0.001-0.004 0.002-0.006 0.003l0.001-0c-0.003 0.001-0.004 0.002-0.006 0.003l0.001-0-0.017 0.011-13.729 7.917c-0.004 0.002-0.008 0.004-0.011 0.006l0.001-0-0.005 0.003c-0.001 0.001-0.002 0.002-0.003 0.003l-0 0c-0.003 0.001-0.004 0.002-0.006 0.003l0.001-0c-0.001 0.001-0.002 0.002-0.003 0.003l-0 0c-0.003 0.001-0.004 0.002-0.006 0.003l0.001-0c-0.002 0.002-0.004 0.003-0.005 0.005l-0 0c-0.001 0.001-0.002 0.003-0.004 0.005l-0 0c-0.003 0.001-0.004 0.002-0.006 0.003l0.001-0c-0.001 0.001-0.002 0.003-0.002 0.005l-0 0.001c-0.002 0.002-0.004 0.003-0.005 0.005l-0 0c-0.001 0.001-0.002 0.003-0.002 0.005l-0 0.001c-0.001 0.001-0.002 0.003-0.002 0.005l-0 0.001c-0.002 0.002-0.004 0.003-0.005 0.005l-0 0c-0.001 0.001-0.002 0.003-0.002 0.005l-0 0.001c-0.001 0.001-0.002 0.003-0.002 0.005l-0 0.001c-0 0.001-0 0.002-0 0.003s0 0.002 0 0.003v-0c-0.001 0.002-0.002 0.004-0.002 0.007l-0 0.001c-0.001 0.001-0.002 0.003-0.002 0.005l-0 0.001c-0 0.001-0 0.002-0 0.003s0 0.002 0 0.003v-0c-0.001 0.002-0.002 0.004-0.002 0.007l-0 0.001c-0 0.001-0 0.002-0 0.003s0 0.002 0 0.003v-0c-0 0.001-0 0.002-0 0.003s0 0.002 0 0.003v-0c-0 0.001-0 0.003-0 0.004s0 0.003 0 0.004v-0c-0 0.003-0 0.006-0 0.009s0 0.007 0 0.010l-0-0v15.835c-0 0.002-0 0.004-0 0.007s0 0.005 0 0.007v-0 0.005c-0 0.001-0 0.003-0 0.004s0 0.003 0 0.004v-0c-0 0.001-0 0.002-0 0.003s0 0.002 0 0.003v-0c-0 0.001-0 0.002-0 0.003s0 0.002 0 0.003v-0c0.001 0.003 0.002 0.004 0.003 0.006l-0-0.001c-0 0.001-0 0.003-0 0.004s0 0.003 0 0.004v-0c0.001 0.003 0.002 0.004 0.003 0.006l-0-0.001c0.001 0.004 0.002 0.006 0.003 0.009l-0-0.001c0.002 0.004 0.004 0.008 0.006 0.011l-0-0.001c0.001 0.003 0.002 0.004 0.003 0.006l-0-0.001c0.001 0.003 0.002 0.004 0.003 0.006l-0-0.001c0.001 0.003 0.002 0.004 0.003 0.006l-0-0.001c0.002 0.002 0.003 0.004 0.005 0.005l0 0c0.001 0.003 0.002 0.004 0.003 0.006l-0-0.001c0.002 0.002 0.003 0.004 0.005 0.005l0 0c0.001 0.001 0.002 0.002 0.003 0.003l0 0c0.002 0.002 0.003 0.004 0.004 0.006l-0-0c0.001 0.001 0.003 0.002 0.005 0.002l0.001 0c0.002 0.002 0.003 0.004 0.005 0.005l0 0c0.001 0.001 0.003 0.002 0.005 0.002l0.001 0c0.001 0.001 0.003 0.002 0.005 0.002l0.001 0c0.004 0.003 0.010 0.005 0.015 0.008l0.001 0 13.739 7.923c0.001 0.001 0.002 0.002 0.003 0.003l0 0 0.005 0.003c0.005 0.004 0.011 0.007 0.018 0.010l0.001 0c0.001 0 0.001 0 0.002 0s0.001 0 0.002-0h-0c0.001 0.001 0.003 0.002 0.005 0.002l0.001 0c0.001 0.001 0.003 0.002 0.005 0.002l0.001 0c0.001 0 0.003 0 0.004 0s0.003-0 0.004-0h-0c0.001 0 0.002 0 0.003 0s0.002 0 0.003-0h-0c0.002 0.001 0.004 0.002 0.007 0.002l0.001 0c0.001 0 0.002 0 0.003 0s0.002 0 0.003-0h-0c0.008-0 0.016-0.001 0.024-0.003l-0.001 0c0.005-0.001 0.010-0.002 0.014-0.003l-0.001 0c0.007-0.002 0.013-0.005 0.019-0.008l-0.001 0c0.004-0.002 0.008-0.004 0.011-0.006l-0.001 0 0.008-0.005c0.003-0.002 0.006-0.004 0.008-0.006l-0 0 13.72-7.912c0.008-0.003 0.015-0.007 0.022-0.011l-0 0 0.005-0.003c0.003-0.001 0.005-0.002 0.007-0.003l-0.001 0c0.001-0.001 0.002-0.002 0.003-0.003l0-0c0.002-0.002 0.004-0.003 0.005-0.005l0-0c0.003-0.001 0.004-0.002 0.006-0.003l-0.001 0c0.002-0.002 0.004-0.003 0.005-0.005l0-0c0.002-0.002 0.004-0.003 0.005-0.005l0-0c0.001-0.001 0.002-0.002 0.003-0.003l0-0c0.002-0.002 0.004-0.003 0.005-0.005l0-0c0.001-0.001 0.002-0.003 0.002-0.005l0-0.001c0.001-0.001 0.002-0.003 0.002-0.005l0-0.001c0.002-0.002 0.004-0.003 0.005-0.005l0-0c0.001-0.001 0.002-0.003 0.002-0.005l0-0.001c0.001-0.002 0.002-0.004 0.002-0.007l0-0.001c0-0.001 0-0.002 0-0.003s0-0.002-0-0.003v0c0.001-0.001 0.002-0.003 0.002-0.005l0-0.001c0.001-0.001 0.002-0.003 0.002-0.005l0-0.001c0-0.001 0-0.003 0-0.004s-0-0.003-0-0.004v0c0.001-0.001 0.002-0.003 0.002-0.005l0-0.001c0-0.001 0-0.002 0-0.003s0-0.002-0-0.003v0c0-0.001 0-0.003 0-0.004s-0-0.003-0-0.004v0c0-0.001 0-0.002 0-0.003s0-0.002-0-0.003v0-0.008c0-0.002 0-0.003 0-0.005s-0-0.004-0-0.006v0-15.837c0-0.002 0-0.005 0-0.008s-0-0.006-0-0.008l0 0c0-0.001 0-0.003 0-0.004s-0-0.003-0-0.004v0c0-0.001 0-0.002 0-0.003s0-0.002-0-0.003v0c0-0.001 0-0.003 0-0.004s-0-0.003-0-0.004v0c-0.001-0.003-0.002-0.004-0.003-0.006l0 0.001c0-0.001 0-0.002 0-0.003s0-0.002-0-0.003v0c-0.001-0.003-0.002-0.004-0.003-0.006l0 0.001c0-0 0-0.001 0-0.001s0-0.001 0-0.001v0c-0.001-0.003-0.002-0.004-0.003-0.006l0 0.001c-0.002-0.004-0.004-0.008-0.006-0.011l0 0.001c-0.001-0.001-0.002-0.002-0.003-0.003l-0-0c-0.001-0.004-0.002-0.008-0.003-0.012l0 0.001c-0.001-0.001-0.002-0.002-0.003-0.003l-0-0c-0.002-0.002-0.003-0.004-0.005-0.005l-0-0c-0.001-0.003-0.002-0.004-0.003-0.006l0 0.001c-0.002-0.002-0.003-0.004-0.005-0.005l-0-0c-0.001-0.003-0.002-0.004-0.003-0.006l0 0.001c-0.001-0.001-0.003-0.002-0.005-0.002l-0.001-0c-0.002-0.002-0.003-0.004-0.005-0.005l-0-0c-0.001-0.001-0.003-0.002-0.005-0.002l-0.001-0c-0.001-0.001-0.002-0.002-0.003-0.002l-0-0c-0.006-0.005-0.013-0.009-0.021-0.013l-0.001-0-13.731-7.917c-0.002-0.002-0.005-0.003-0.007-0.005l-0.001-0-0.004-0.003c-0.003-0.002-0.006-0.003-0.010-0.005l-0.001-0c-0.001-0.001-0.003-0.001-0.005-0.002l-0.001-0c-0.004-0.002-0.008-0.004-0.012-0.005l-0.001-0c-0.001-0-0.002-0-0.003-0s-0.002 0-0.003 0h0c-0.001-0.001-0.003-0.002-0.005-0.002l-0.001-0c-0.001-0.001-0.004-0.002-0.006-0.002l-0.001-0c-0.001-0-0.002-0-0.003-0s-0.002 0-0.003 0h0c-0.001-0-0.003-0-0.004-0s-0.003 0-0.004 0h0c-0.001-0-0.002-0-0.003-0s-0.002 0-0.003 0h0c-0.001-0-0.002-0-0.003-0s-0.002 0-0.003 0h0c-0.002-0-0.004-0-0.006-0s-0.004 0-0.006 0h0zM15.875 0.341v5.851l-8.308 4.824-5.083-2.955zM16.124 0.341l13.391 7.72-5.083 2.955-8.307-4.824zM16 6.405l8.185 4.753-8.187 4.692-8.184-4.692zM2.36 8.277l5.084 2.955v9.528l-5.084 2.956zM29.64 8.277v15.439l-5.085-2.955v-9.529zM7.692 11.373l8.183 4.692v9.445l-8.183-4.751zM24.308 11.373v9.387l-8.184 4.751v-9.444zM7.567 20.973l8.307 4.827v5.851l-13.392-7.72zM24.433 20.973l5.084 2.957-13.393 7.72v-5.851l4.156-2.413z"></path>
</symbol>
<symbol id="icon-atom" viewBox="0 0 32 32">
<title>atom</title>
<path fill="#66595c" style="fill: var(--color3, #66595c)" d="M27.328 12.035c-2.911-1.24-6.821-2.040-11-2.26-0.667-0.040-1.316-0.053-1.933-0.053 3.091-3.773 6.403-6.307 8.583-6.387 0.429-0.017 0.793 0.073 1.084 0.261 0.941 0.611 1.207 2.357 0.727 4.787-0.053 0.333 0.16 0.657 0.48 0.72 0.333 0.067 0.653-0.147 0.72-0.48 0.6-3.040 0.16-5.128-1.253-6.051-0.507-0.331-1.12-0.487-1.8-0.461-2.733 0.103-6.587 3.067-10.12 7.627-1.539 0.047-2.987 0.173-4.309 0.383-0.861-3.863-0.52-6.636 0.792-7.303 0.184-0.097 0.38-0.147 0.609-0.165 0.929-0.072 2.213 0.527 3.613 1.693 0.259 0.213 0.648 0.187 0.861-0.080 0.217-0.26 0.179-0.64-0.080-0.86-1.68-1.392-3.229-2.072-4.496-1.979-0.381 0.033-0.741 0.131-1.071 0.293-1.587 0.809-2.227 3.103-1.827 6.451 0.093 0.693 0.213 1.416 0.387 2.16-4.375 0.875-7.161 2.627-7.281 4.832-0.080 1.56 1.153 3.045 3.573 4.296 0.299 0.153 0.669 0.040 0.827-0.267 0.152-0.299 0.040-0.667-0.267-0.821-1.933-0.995-2.973-2.117-2.911-3.144 0.067-1.44 2.363-2.92 6.347-3.707 0.36 1.325 0.827 2.709 1.4 4.12-1.357 2.517-2.341 4.996-2.849 7.2-0.747 3.287-0.347 5.627 1.147 6.597 0.48 0.312 1.040 0.467 1.663 0.467 1.247 0 2.756-0.613 4.463-1.829 0.28-0.2 0.341-0.58 0.147-0.853-0.196-0.275-0.577-0.341-0.853-0.141-2.059 1.471-3.792 1.963-4.749 1.337-1.013-0.66-1.235-2.591-0.613-5.301 0.427-1.848 1.209-3.907 2.277-6.027 0.267 0.584 0.547 1.168 0.84 1.751 1.9 3.728 4.227 6.969 6.547 9.127 1.848 1.72 3.565 2.617 4.98 2.617 0.467 0 0.907-0.1 1.301-0.297 1.527-0.78 2.187-2.947 1.864-6.1-0.299-2.951-1.413-6.547-3.139-10.133-0.147-0.303-0.512-0.431-0.813-0.288-0.307 0.147-0.44 0.513-0.293 0.816 3.587 7.469 3.84 13.587 1.827 14.613-2.12 1.084-7.232-3.14-11.187-10.907-0.453-0.873-0.849-1.733-1.2-2.573 0.453-0.811 0.933-1.627 1.46-2.44 0.527-0.805 1.075-1.584 1.632-2.327h0.525c0.72 0 1.501 0.013 2.312 0.064 8.707 0.457 14.633 3.413 14.512 5.779-0.053 1.020-1.232 2.051-3.233 2.827-0.312 0.128-0.469 0.48-0.347 0.795 0.093 0.24 0.32 0.389 0.568 0.389 0.077 0 0.152-0.013 0.223-0.040 2.54-0.987 3.933-2.341 4.013-3.907 0.093-1.773-1.56-3.48-4.667-4.8zM10.773 12.6c-0.36 0.553-0.693 1.103-1.019 1.659-0.389-1.024-0.709-2.013-0.964-2.953 0.951-0.147 1.98-0.253 3.080-0.32-0.373 0.52-0.739 1.059-1.093 1.613zM16.007 14.167c-1.013 0-1.833 0.821-1.833 1.833s0.821 1.833 1.833 1.833v0c1.013 0 1.833-0.821 1.833-1.833s-0.821-1.833-1.833-1.833v0z"></path>
</symbol>
<symbol id="icon-babel" viewBox="0 0 32 32">
<title>babel</title>
<path fill="#f9dc3e" style="fill: var(--color4, #f9dc3e)" d="M21.912 10.763l-0.007-0.068-0.112 0.009 0.007 0.069zM22.661 12.565l0.003 0.037 0.077-0.007c0.001-0.040 0.010-0.077 0.025-0.111l-0.001 0.002-0.007-0.068c-0.033 0.003-0.067 0.052-0.097 0.147zM19.737 14.835c-0.005-0.064-0.204-0.313-0.597-0.752-0.007-0.080 0.128-0.2 0.405-0.36l0.792-0.691c0.177-0.225 0.281-0.589 0.313-1.097l-0.009-0.116c-0.032-0.351-0.285-0.633-0.767-0.849-0.284-0.192-0.796-0.299-1.536-0.317-0.613 0.052-1.411 0.271-2.396 0.656-0.261 0.189-0.563 0.382-0.875 0.559l-0.049 0.025 0.005 0.059c0.036-0.006 0.067-0.020 0.094-0.040l-0.001 0c0.040-0.004 0.063 0.013 0.067 0.053l0.059-0.032 0.027-0.003 0.004 0.027c0.003 0.031-0.211 0.2-0.643 0.5l0.033 0.061-0.028 0.003-0.072-0.027c0.003 0.023-0.028 0.036-0.088 0.040l0.003 0.027 0.069 0.085c-0.036-0.001-0.071-0.009-0.102-0.023l0.002 0.001c-0.118 0.018-0.22 0.076-0.293 0.159l-0 0.001 0.040-0.175c0.145-0.624 0.244-1.176 0.296-1.655l-0.007-0.031c-0.111-0.075-0.206-0.164-0.285-0.265l-0.002-0.003c0.002-0.019 0.002-0.041 0.002-0.063s-0.001-0.044-0.003-0.066l0 0.003-0.007-0.027-0.028 0.008c-0.313 0.469-0.916 1.271-1.809 2.404-0.68 0.807-1.032 1.255-1.053 1.345-0.277 0.287-0.409 0.46-0.396 0.52-0.073 0.047-0.104 0.093-0.093 0.147-0.020 0.004-0.035-0.003-0.040-0.024-0.117 0.188-0.303 0.323-0.523 0.368l-0.005 0.001-0.247 0.057c-0.033 0.007-0.049 0.031-0.047 0.071l0.007 0.031 0.092-0.021 0.007 0.027-0.209 0.080-0.369 0.085-0.195 0.013c-0.028 0.027 0.155-0.004 0.083 0.013l-0.241 0.057c-0.147 0.033-0.227 0.021-0.241-0.039l-0.029 0.007c0.005 0.027 0.007 0.045 0.003 0.063l-0.013-0.060-0.195 0.045c-0.013-0.091-0.277-0.417-0.787-0.981-0.011-0.109 0.169-0.268 0.537-0.475l1.039-0.913c0.232-0.299 0.369-0.777 0.415-1.436l-0.013-0.155c-0.040-0.465-0.377-0.84-1.011-1.128-0.375-0.253-1.048-0.389-2.020-0.411-0.807 0.068-1.86 0.356-3.155 0.856-0.346 0.252-0.743 0.506-1.155 0.737l-0.061 0.031 0.007 0.080c0.045-0.008 0.086-0.024 0.121-0.047l-0.001 0.001c0.053-0.005 0.081 0.019 0.087 0.067l0.080-0.045 0.040-0.003 0.003 0.039c0.003 0.037-0.28 0.257-0.851 0.661l0.045 0.071-0.040 0.003-0.088-0.031c0.003 0.024-0.039 0.040-0.12 0.047l0.004 0.043 0.095 0.105c-0.046-0.001-0.090-0.010-0.13-0.028l0.002 0.001c-0.185 0.017-0.365 0.149-0.543 0.4l0.045 0.072c0.153-0.143 0.244-0.213 0.269-0.216l0.009 0.116c-0.045 0.010-0.085 0.027-0.122 0.049l0.002-0.001 0.097 0.147c0.181-0.196 0.384-0.368 0.606-0.512l0.012-0.008c0.111 0.029 0.171 0.065 0.173 0.103l0.085-0.007c0.611-0.453 1.216-0.78 1.816-0.981l0.007 0.080c-0.112 0.167-0.187 0.252-0.227 0.256 0.004 0.057 0.023 0.107 0.059 0.149 0.009 0.103-0.264 0.789-0.816 2.061-1.253 2.955-2.307 5.14-3.164 6.553 0.003 0.029 0.020 0.067 0.051 0.115 0.211-0.051 0.344-0.103 0.4-0.152l0.045-0.005 0.007 0.080 0.079-0.007 0.080-0.044c0.003 0.023 0.029 0.035 0.084 0.031l0.007 0.080c0.007 0.079-0.039 0.197-0.133 0.36-0.085 0.097-0.177 0.301-0.275 0.613l0.003 0.037 0.079-0.008c0.341-0.381 0.6-0.756 0.777-1.12 0.996-0.293 1.755-0.58 2.28-0.861 0.529-0.045 0.933-0.185 1.208-0.416l-0.005-0.043-0.2 0.060-0.044 0.005-0.005-0.044c0.388-0.059 0.656-0.144 0.805-0.263 0.757-0.583 1.328-0.996 1.715-1.24 0.795-0.584 1.312-1.152 1.547-1.705l0.133-0.031c0.111-0.004 0.173-0.007 0.189-0.012-0.005-0.021 0.005-0.033 0.027-0.037 0.177-0.019 0.092 0.012 0.205-0.013l0.299-0.069c-0.019 0.004-0.027 0.013-0.021 0.032l0.045-0.027c-0.009 0-0.017-0.004-0.024-0.005l0.049-0.013-0.023 0.015c0.011 0.001 0.024 0.002 0.036 0.002 0.025 0 0.050-0.003 0.074-0.009l-0.002 0 0.021 0.088-1.359 2.16-0.301 0.377-0.147 0.493 0.028-0.008 0.147-0.061-0.047 0.192 0.013 0.057 0.041 0.049c-0.019 0.005-0.027 0.017-0.021 0.039l0.007 0.031 0.061-0.013c0.091-0.080 0.128-0.151 0.115-0.215 0.040 0.010 0.087 0.016 0.135 0.016 0.021 0 0.041-0.001 0.061-0.003l-0.002 0 0.007 0.032c-0.059 0.013-0.089 0.061-0.093 0.143l0.005 0.031 0.033-0.008c0.493-0.537 1.703-2.38 2.673-3.629-0.032-0.136 0.473-0.323 1.517-0.565l0.033-0.007c0.037 0.164-0.043 0.56-0.243 1.188-0.128 0.38-0.189 0.588-0.18 0.621-0.165 0.505-0.244 0.777-0.235 0.82l-0.369 1.213c-0.24 0.62-0.423 1.272-0.551 1.96 0.009-0.001 0.020-0.002 0.030-0.002 0.026 0 0.051 0.004 0.074 0.012l-0.002-0 0.052-0.045c0.005 0.021 0.019 0.028 0.040 0.024l-0.021-0.088 0.16-0.004c0.048-0.013 0.089-0.072 0.121-0.181-0.007-0.163 0.027-0.251 0.1-0.269 0.1-0.389 0.161-0.584 0.183-0.591 0.093-0.387 0.161-0.608 0.207-0.661 0.14-0.503 0.241-0.761 0.308-0.779l0.013 0.063-0.101 0.263c-0.177 0.789-0.357 1.413-0.54 1.871l0.052 0.227 0.033-0.005c0.44-0.949 1.076-2.827 1.904-5.635 0.019-0.244 0.155-0.452 0.35-0.572l0.003-0.002-0.048-0.051-0.007-0.027c0.095-0.020 0.161-0.059 0.2-0.111-0.005-0.021-0.088-0.052-0.249-0.095l0.413-1.769c0.045-0.048 0.097-0.089 0.154-0.121l0.003-0.002 0.007 0.089c-0.035 0.007-0.066 0.021-0.093 0.040l0.001-0 0.079 0.112c0.141-0.153 0.296-0.287 0.464-0.399 0.085 0.024 0.128 0.053 0.133 0.080l0.061-0.004c0.396-0.303 0.854-0.553 1.348-0.729l0.035-0.011 0.005 0.060c-0.083 0.125-0.14 0.189-0.171 0.192 0.004 0.042 0.017 0.081 0.038 0.114l-0.001-0.001c0.007 0.079-0.196 0.6-0.613 1.568-0.953 2.24-1.752 3.899-2.403 4.975 0.008 0.034 0.023 0.063 0.043 0.088l-0-0c0.16-0.039 0.261-0.079 0.301-0.116l0.028-0.003 0.005 0.059 0.067-0.004 0.060-0.031c0.003 0.016 0.023 0.023 0.064 0.021l0.005 0.064c0.005 0.056-0.029 0.147-0.103 0.269-0.068 0.073-0.14 0.228-0.216 0.463l0.003 0.031 0.063-0.004c0.227-0.247 0.424-0.527 0.579-0.832l0.010-0.021c0.757-0.224 1.333-0.44 1.732-0.653 0.405-0.035 0.711-0.14 0.92-0.315l-0.003-0.031-0.155 0.044-0.033 0.003-0.003-0.031c0.293-0.043 0.5-0.109 0.612-0.196 0.573-0.441 1.008-0.757 1.301-0.941 0.916-0.667 1.343-1.307 1.291-1.921zM19.58 14.875l0.021 0.24c-0.027 0.059-0.059 0.089-0.087 0.093l-0.036-0.409c0.067 0.024 0.1 0.048 0.101 0.076zM1.627 12.947l-0.040 0.001-0.007-0.073 0.164-0.013 0.003 0.037c-0.045 0.008-0.086 0.025-0.121 0.049l0.001-0.001zM0.827 20.94c-0.066-0.034-0.145-0.054-0.228-0.054-0.009 0-0.018 0-0.027 0.001l0.001-0-0.008-0.116c-0.005-0.044 0.021-0.075 0.077-0.087 0.053-0.005 0.083 0.033 0.088 0.108 0.137-0.168 0.213-0.253 0.227-0.256l0.089 0.036c-0.029 0.237-0.103 0.359-0.22 0.368zM9.367 12.007c-0.040 0.005-0.12-0.12-0.237-0.369l-0.007-0.073c0.076-0.008 0.155 0.116 0.237 0.369zM9.253 11.123l-0.033 0.079-1.16-0.484c0.773 0.027 1.172 0.16 1.193 0.405zM4.356 15.327l-0.164 0.013-0.007-0.072 0.164-0.015zM4.223 12.801l0.040-0.003 0.011 0.116c-0.039 0.003-0.088 0.060-0.149 0.169l-0.007-0.080c0.073-0.089 0.111-0.155 0.105-0.203zM3.88 13.612l0.013 0.155-0.040 0.003-0.013-0.155zM3.699 13.901l0.080-0.007c-0.008 0.128-0.044 0.197-0.107 0.201l-0.041 0.003c0.049-0.085 0.073-0.152 0.068-0.197zM3.565 14.305l0.044-0.005 0.003 0.037-0.073 0.124-0.079 0.007-0.003-0.037c0.079-0.008 0.115-0.048 0.108-0.125zM3.432 14.668l-0.024 0.195-0.040 0.001-0.017-0.192zM2.101 18.449c-0.053 0.267-0.109 0.4-0.168 0.405l-0.003-0.037c-0.015-0.131 0.043-0.253 0.171-0.368zM1.857 18.979l0.003 0.037c0.005 0.053-0.020 0.084-0.072 0.085l-0.003-0.037c-0.005-0.045 0.020-0.073 0.072-0.085zM1.785 20.076l0.124-0.012 0.005 0.043c-0.046 0.008-0.087 0.025-0.123 0.049l0.001-0.001-0.079 0.007c-0.005-0.040 0.021-0.071 0.071-0.085zM5.295 18.993c-0.692 0.341-1.1 0.573-1.221 0.693-0.749 0.261-1.12 0.423-1.113 0.487-0.667 0.264-1.107 0.457-1.316 0.579-0.079-0.001-0.153-0.022-0.218-0.057l0.002 0.001c-0.013-0.136 0.049-0.245 0.18-0.333 0.018-0.002 0.038-0.003 0.059-0.003 0.099 0 0.193 0.021 0.279 0.058l-0.005-0.002c0.184-0.085 0.399-0.158 0.624-0.208l0.022-0.004-0.007-0.080-0.247 0.021c0.031-0.043 0.268-0.155 0.715-0.333l0.123-0.013 0.003 0.039c-0.211 0.019-0.327 0.080-0.353 0.192 0.005 0.049 0.033 0.071 0.085 0.067 0.16-0.1 0.237-0.16 0.235-0.176 0.301-0.057 1.133-0.493 2.497-1.307l0.007 0.073c0.003 0.036-0.113 0.136-0.349 0.307zM3.204 19.68c0.201-0.016 0.38-0.104 0.512-0.237l0-0c0.057-0.004 0.088 0.017 0.089 0.067-0.096 0.009-0.284 0.091-0.556 0.247l-0.040 0.003zM6.577 17.089l-1.045 0.827c-0.777 0.511-1.195 0.767-1.253 0.771-1.239 0.68-2.009 1.035-2.308 1.060l-0.045 0.005c0.039-0.14 0.588-1.267 1.655-3.387 0.471-0.040 1.209-0.259 2.217-0.657l0.247-0.021c0.511-0.044 0.892 0.055 1.143 0.293l0.015 0.153c-0.189 0.545-0.399 0.863-0.624 0.956zM4.533 15.937l0.169-0.013 0.003 0.037-0.169 0.013zM6.899 15.537l0.123-0.013c0.113 0.055 0.173 0.103 0.177 0.145l0.003 0.037c-0.108 0.011-0.211-0.047-0.303-0.169zM7.232 13.632c-0.109 0.131-0.408 0.353-0.896 0.667-0.16 0.013-0.76 0.247-1.8 0.701-0.039-0.018-0.085-0.028-0.133-0.028-0.011 0-0.023 0.001-0.034 0.002l0.001-0-0.007-0.075c-0.013-0.149 0.053-0.337 0.2-0.564 0.081-0.427 0.169-0.672 0.267-0.731l0.867-1.947c-0.011-0.12 0.173-0.213 0.553-0.277l0.124-0.013 0.009 0.112c0.373-0.056 0.604-0.089 0.693-0.096 0.689-0.060 1.047 0.080 1.076 0.413l0.077-0.005-0.016-0.197 0.085-0.007c0.2 0.111 0.311 0.247 0.324 0.405 0.009 0.109-0.049 0.244-0.175 0.405-0.053 0.004-0.083-0.033-0.088-0.109l-0.085 0.007-0.019 0.237c-0.349 0.521-0.603 0.789-0.76 0.804-0.141 0.197-0.229 0.293-0.265 0.296zM7.764 14.996c-0.072-0.048-0.128-0.069-0.171-0.067l-0.009-0.116 0.077-0.007 0.173 0.101c0.007 0.055-0.016 0.083-0.071 0.088zM8.313 15.648c0.076 0.031 0.121 0.064 0.131 0.095l-0.037 0.009 0.003 0.003c-0.009 0.001-0.017 0.003-0.025 0.006l0.001-0-0.057 0.044zM8.367 15.975l-0.008-0.031 0.1-0.023 0.007 0.031zM8.605 16.243c0.101-0.016 0.152-0.023 0.341-0.067l0.007 0.032-0.36 0.083c0.004-0.013 0.008-0.029 0.012-0.046l0-0.002zM8.956 16.392c-0.152 0.015-0.119-0.004-0.36 0.051l-0.007-0.031 0.301-0.097 0.144-0.033 0.013 0.057c-0.063 0.013-0.016 0.013-0.092 0.053zM9.276 16.317c-0.035 0.009-0.064-0.008-0.080-0.048l0.093-0.021c0.040-0.009 0.065 0.007 0.075 0.048zM10.144 15.383l-0.007-0.031 0.149-0.036 0.013 0.057zM11.072 21.068c0.006-0.019 0.009-0.040 0.009-0.062 0-0.011-0.001-0.022-0.002-0.032l0 0.001 0.032-0.008c0.040-0.009 0.064 0.005 0.075 0.043l0.007 0.031zM11.721 15.627l-0.067-0.012c-0.075 0.033-0.165 0.064-0.258 0.088l-0.013 0.003-0.061 0.013c-0.036 0.009-0.064-0.004-0.079-0.043l0.435-0.099 0.143-0.067 0.047 0.053c-0.056 0.009-0.106 0.031-0.147 0.063l0.001-0.001zM12.055 15.52l-0.005-0.031c0.032-0.011 0.059-0.029 0.080-0.053l0-0 0.308-0.071 0.007 0.031c-0.163 0.040-0.293 0.080-0.389 0.124zM12.103 14.896c-0.033 0.013-0.062 0.031-0.085 0.053l0-0c-0.005-0.023-0.047-0.023-0.128-0.003-0.013-0.060 0.213-0.143 0.685-0.252l0.067-0.013 0.013 0.056c-0.331 0.097-0.516 0.152-0.552 0.159zM12.933 14c-0.033 0.377-0.167 0.591-0.4 0.645l-0.008-0.031-0.208 0.080-0.093 0.021c-0.018 0.005-0.038 0.008-0.059 0.008-0.024 0-0.048-0.004-0.070-0.011l0.002 0-0.019-0.083c-0.007-0.031 0.293-0.448 0.907-1.249l0.071 0.012c0.027 0.108-0.015 0.311-0.121 0.607zM14.4 12.743l-0.027 0.003-0.007-0.059 0.124-0.013 0.003 0.032c-0.035 0.009-0.066 0.022-0.095 0.038l0.002-0.001zM13.796 18.816c-0.051-0.027-0.111-0.043-0.175-0.043-0.005 0-0.010 0-0.015 0l0.001-0-0.007-0.091c-0.003-0.031 0.016-0.052 0.056-0.064 0.040-0.004 0.064 0.024 0.069 0.085 0.050-0.074 0.106-0.138 0.17-0.195l0.001-0.001 0.064 0.027c-0.024 0.18-0.079 0.275-0.164 0.281zM20.279 12.035c-0.031 0.001-0.089-0.093-0.183-0.285l-0.005-0.059c0.060-0.005 0.121 0.088 0.183 0.277zM20.193 11.356l-0.028 0.061-0.877-0.367c0.587 0.019 0.889 0.12 0.905 0.305zM16.473 14.551l-0.124 0.011-0.005-0.059 0.124-0.009zM16.371 12.631l0.033-0.001 0.007 0.091c-0.031 0.001-0.068 0.044-0.113 0.128l-0.005-0.060c0.053-0.068 0.080-0.12 0.079-0.157zM16.113 13.248l0.009 0.116-0.033 0.003-0.009-0.116zM15.973 13.469l0.061-0.005c-0.007 0.1-0.033 0.152-0.079 0.156l-0.033 0.003c0.028-0.043 0.047-0.096 0.051-0.152l0-0.001zM15.873 13.772l0.028-0.003 0.003 0.032-0.053 0.093-0.063 0.005-0.003-0.031c0.064-0.004 0.093-0.037 0.088-0.097zM15.773 14.048l-0.021 0.151-0.028 0.003-0.013-0.149zM14.76 16.924c-0.040 0.2-0.081 0.301-0.127 0.307l-0.003-0.027c-0.007-0.1 0.036-0.195 0.129-0.28zM14.573 17.324l0.003 0.027c0.005 0.043-0.013 0.067-0.056 0.068l-0.003-0.031c-0.003-0.031 0.016-0.052 0.056-0.064zM14.521 18.159l0.095-0.007 0.003 0.031c-0.035 0.007-0.067 0.019-0.095 0.037l0.001-0.001-0.060 0.004c-0.003-0.032 0.016-0.053 0.056-0.064zM17.184 17.336c-0.52 0.259-0.832 0.435-0.929 0.524-0.569 0.2-0.851 0.323-0.847 0.373-0.504 0.2-0.836 0.347-0.993 0.437-0.060-0.002-0.117-0.018-0.166-0.045l0.002 0.001c-0.009-0.103 0.039-0.185 0.139-0.247 0.015-0.002 0.033-0.002 0.051-0.002 0.073 0 0.143 0.015 0.206 0.041l-0.004-0.001c0.095-0.047 0.259-0.099 0.491-0.159l-0.005-0.059-0.195 0.013c0.024-0.033 0.207-0.119 0.547-0.256l0.093-0.007 0.003 0.027c-0.16 0.013-0.251 0.061-0.269 0.147 0.003 0.037 0.027 0.056 0.067 0.052 0.117-0.079 0.175-0.124 0.175-0.137 0.227-0.040 0.859-0.373 1.895-0.993l0.005 0.059c0.003 0.027-0.085 0.101-0.264 0.232zM15.596 17.857c0.154-0.012 0.291-0.078 0.393-0.177l-0 0c0.040-0.004 0.064 0.013 0.067 0.053-0.071 0.007-0.211 0.065-0.423 0.179l-0.033 0.003zM18.161 15.888l-0.789 0.635c-0.591 0.387-0.911 0.581-0.96 0.587-0.94 0.516-1.523 0.784-1.753 0.803l-0.033 0.003c0.029-0.107 0.449-0.963 1.26-2.571 0.353-0.031 0.913-0.199 1.68-0.503l0.193-0.016c0.387-0.033 0.676 0.043 0.865 0.225l0.009 0.116c-0.145 0.408-0.301 0.648-0.472 0.721zM16.611 15.015l0.124-0.012 0.003 0.031zM18.405 14.708l0.095-0.007c0.088 0.043 0.133 0.080 0.136 0.112l0.003 0.027c-0.083 0.007-0.161-0.036-0.233-0.132zM18.655 13.265c-0.083 0.099-0.308 0.269-0.676 0.507-0.123 0.013-0.579 0.187-1.365 0.529-0.031-0.011-0.067-0.018-0.105-0.018-0.007 0-0.015 0-0.022 0.001l0.001-0-0.005-0.059c-0.009-0.113 0.040-0.256 0.149-0.429 0.061-0.327 0.129-0.509 0.2-0.552l0.663-1.48c-0.007-0.088 0.133-0.16 0.417-0.213l0.095-0.007 0.007 0.089c0.28-0.045 0.455-0.071 0.527-0.079 0.521-0.044 0.795 0.060 0.816 0.316l0.061-0.005-0.013-0.141 0.063-0.005c0.152 0.083 0.232 0.183 0.241 0.301 0.007 0.085-0.035 0.189-0.125 0.311-0.040 0.005-0.064-0.024-0.068-0.085l-0.063 0.004-0.019 0.179c-0.263 0.4-0.455 0.607-0.576 0.616-0.107 0.145-0.173 0.219-0.203 0.221zM18.932 14.252l-0.007-0.091 0.061-0.005 0.133 0.080c0.003 0.040-0.017 0.060-0.057 0.065-0.056-0.036-0.099-0.053-0.131-0.049zM7.895 20.012l-0.063 0.013-0.052 0.045c0.009 0.037 0.033 0.052 0.073 0.043s0.057-0.033 0.041-0.101zM7.659 19.544l0.007 0.031c0.040-0.009 0.057-0.033 0.048-0.071l-0.007-0.031c-0.037 0.009-0.053 0.033-0.048 0.071zM9.328 15.572l0.072-0.016-0.013-0.063-0.072 0.017zM30.845 17.379c-0.72 0.161-0.811 0.133-0.963 0.145l0.005 0.059 0.067-0.004 0.035-0.003-0.009-0.008 0.080-0.031c0.712-0.077 0.796-0.049 0.785-0.159zM26.964 17.893l0.005 0.060h0.009zM26.517 16.331l-0.064-0.021c-0.033 0.071-0.059 0.154-0.075 0.24l-0.001 0.007 0.003 0.027c0.051-0.003 0.096-0.088 0.137-0.252zM30.992 17.367l0.005 0.060 0.104 0.019-0.005-0.059zM26.085 17.967l-0.16-0.019-0.029 0.061 0.003 0.031 0.96-0.080-0.004-0.059zM25.649 15.864l-0.003-0.031-0.032 0.003-0.060 0.037 0.033 0.057c0.045-0.005 0.067-0.027 0.061-0.067zM31.448 16.931l0.045-0.004c0.027-0.003 0.037-0.024 0.035-0.063l-0.027-0.056c-0.002 0-0.003-0-0.005-0-0.135 0-0.261 0.035-0.371 0.095l0.004-0.002-0.003-0.029-0.196 0.019c-0.005-0.060-0.021-0.091-0.048-0.088l-0.101 0.009c-0.12 0.009-0.176 0.005-0.235 0.051-0.003-0.023-0.009-0.032-0.021-0.032l-0.115 0.009-0.067 0.039c-0.003-0.021-0.009-0.031-0.021-0.031l-0.040 0.035-0.003-0.031-0.159-0.012-0.037 0.003 0.005 0.060 0.080 0.021 0.076-0.005c0.027 0.017 0.053 0.021 0.088 0.019l0.067-0.033 0.003 0.027c-0.373 0.093-0.371 0.076-0.627 0.119-0.028-0.019-0.049-0.028-0.064-0.027l-0.005 0.005c-0.028-0.003-0.045-0.021-0.048-0.053l0.133-0.016c0.009 0 0.016 0.011 0.091 0.024 0.107-0.052 0.111-0.073 0.168-0.077l-0.005-0.060c-0.365 0.071-0.219 0.024-0.676 0.064l-0.021 0.003-0.005-0.060c0.588-0.071 0.392-0.031 0.593-0.087 0.003 0.021 0.009 0.031 0.021 0.031 0.021-0.021 0.048-0.036 0.079-0.040l0.001-0 0.040-0.003c0.207-0.017 0.276 0.023 0.684-0.091l0.003 0.027 0.067-0.033 0.061-0.005c-0.005-0.059 0.085-0.068 0.116-0.071l-0.005-0.064c-0.716 0.144-0.904 0.104-1.103 0.16l-0.003-0.025c-0.187 0.033-0.195 0.019-0.243 0.021-0.024 0.007-0.043 0.021-0.059 0.038l-0 0c-0.003-0.021-0.009-0.031-0.024-0.031l-0.012 0.001-0.607 0.1c-0.003-0.016-0.009-0.027-0.024-0.024-0.316 0.067-0.231 0.079-0.653 0.116-0.029 0.006-0.055 0.018-0.078 0.034l0.001-0c-0.003-0.016-0.012-0.027-0.033-0.024l-0.259 0.021-0.173 0.044c-0.001-0.017-0.011-0.027-0.032-0.024-0.097 0.027-0.183 0.043-0.252 0.047h-0.005c-0.043 0.005 0.021-0.012-0.012-0.027l-0.052 0.032c-0.076 0.007-0.036-0.005-0.296-0.003-0.457 0.057-0.408 0.064-0.457 0.067l-0.172-0.012c0.003 0.016-0.007 0.028-0.027 0.028-0.193-0.027-0.293-0.056-0.295-0.093 0.027-0.184 0.071-0.279 0.133-0.283l0.035-0.003-0.029 0.061 0.033-0.003c0.063-0.033 0.091-0.064 0.088-0.093l-0.005-0.063-0.061 0.004-0.005-0.059c-0.001-0.008-0.002-0.018-0.002-0.028 0-0.033 0.008-0.064 0.021-0.092l-0.001 0.001 0.14-0.225 0.005 0.060 0.067-0.005-0.005-0.060-0.039-0.053c0.051-0.043 0.088-0.067 0.12-0.069l-0.004-0.031-0.089 0.007-0.007-0.089c0.18-0.375 0.265-0.593 0.26-0.655l0.064 0.027c0.040-0.004 0.060-0.027 0.057-0.069l-0.061 0.004-0.003-0.027c-0.001-0.006-0.001-0.013-0.001-0.021 0-0.038 0.009-0.073 0.026-0.105l-0.001 0.001c0.097-0.103 0.141-0.204 0.133-0.311 0.017-0.003 0.027 0.007 0.029 0.027 0.084-0.047 0.147-0.172 0.195-0.38 0.147-0.267 0.356-0.797 0.629-1.592 0.52-1.404 0.5-1.553 0.573-1.885l-0.061 0.005c0.001 0.006 0.001 0.013 0.001 0.020 0 0.037-0.009 0.071-0.026 0.101l0.001-0.001c-0.029-0.014-0.064-0.022-0.1-0.023h-0l-0.003-0.027c-0.009-0.12 0.040-0.265 0.155-0.436l0.028-0.003 0.053 0.204 0.060-0.004c-0.003-0.015 0.015-0.096 0.048-0.245-0.003-0.031-0.027-0.049-0.073-0.052l-0.060 0.039c-0.002-0.036-0.002-0.077-0.002-0.119 0-0.075 0.003-0.15 0.008-0.224l-0.001 0.010-0.031 0.004c-0.052-0.053-0.077-0.096-0.080-0.131l-0.34 0.033c-0.007-0.040-0.020-0.075-0.038-0.107l0.001 0.002c-0.003-0.031 0.073-0.061 0.229-0.092l0.069 0.027 0.064-0.039c0.003 0.021 0.013 0.031 0.039 0.029l0.064-0.039c0.003 0.021 0.013 0.031 0.037 0.028l0.031-0.001-0.005-0.069c-0.047 0.005-0.173 0.005-0.373-0.003l-0.063 0.043-0.003-0.037c-1.591 0.131-2.495 0.204-2.711 0.225-0.028 0.003-0.14 0-0.336-0.005 0.003 0.027-0.021 0.040-0.069 0.045l-0.069-0.031-0.232 0.059c-0.053 0.005-0.147 0.003-0.275-0.012-0.036 0.029-0.081 0.047-0.13 0.051l-0.001 0c-0.028 0.003 0.339-0.019 0.68-0.043-0.047 0.031-0.104 0.051-0.165 0.052h-0c-0.009 0.001-0.019 0.002-0.029 0.002-0.038 0-0.075-0.010-0.106-0.027l0.001 0.001c-0.137 0.045-0.307 0.086-0.48 0.115l-0.023 0.003-0.069-0.027-1.109 0.171c-0.034-0.016-0.073-0.025-0.115-0.025-0.012 0-0.024 0.001-0.036 0.002l0.001-0c-0.060 0.004-0.16 0.027-0.297 0.064l-0.536 0.223 0.040 0.067c0.041-0.007 0.078-0.022 0.11-0.043l-0.001 0.001 0.191 0.016-0.024 0.179c-0.176 0.077-0.277 0.193-0.307 0.341-0.263 0.116-0.393 0.199-0.393 0.248l0.003 0.031 0.040-0.001 0.072-0.039 0.083 0.1 0.012 0.137c0.005 0.043-0.439 0.975-1.325 2.796-0.768 1.755-1.172 2.715-1.209 2.888-0.264 0.073-0.415 0.18-0.46 0.323 0.005 0.045 0.083 0.076 0.235 0.088l0.007 0.068-0.069 0.115 0.013 0.137c0.005 0.071 0.199 0.125 0.575 0.163-0.003-0.023 0.009-0.037 0.036-0.040 0.007 0.085-0.016 0.252-0.071 0.499l0.040-0.003c0.156-0.213 0.231-0.36 0.223-0.44l0.033-0.004c0.037-0.003 0.079 0.040 0.125 0.133-0.047 0.019-0.213 0.396-0.497 1.133l0.040 0.067 0.040-0.003c0.349-0.883 0.567-1.371 0.657-1.463 0.457-0.040 1.249-0.121 2.373-0.243l0.072-0.043c0.003 0.024 0.016 0.036 0.043 0.033l0.073-0.007 0.071-0.043c0.003 0.024 0.016 0.036 0.043 0.033l0.851-0.073c0.227-0.020 0.333-0.088 0.323-0.204-0.003-0.031 0.131-0.067 0.399-0.105 0 0 0 0 0 0 0.042 0 0.081 0.008 0.118 0.022l-0.002-0.001c-0.003-0.021 0.133-0.043 0.403-0.067 0.007-0.141 0.053-0.217 0.133-0.224l-0.007-0.069c-0.097 0.011-0.186 0.032-0.27 0.063l0.008-0.003c-0.121-0.001-0.237-0.016-0.349-0.042l0.011 0.002c-0.031 0.020-0.068 0.034-0.107 0.041l-0.002 0-0.592 0.020-0.072 0.037c-0.003-0.021-0.016-0.031-0.043-0.028l-0.033 0.001-0.075 0.039c-0.003-0.021-0.064-0.039-0.188-0.055l-0.076 0.045-0.147 0.012-0.003-0.039c0.764-0.083 1.14-0.187 1.131-0.311 0.051-0.004 0.076 0.020 0.080 0.069l0.224-0.057-0.007-0.068-1.828 0.049c0.003 0.024-0.009 0.037-0.036 0.040l-0.223-0.019c-0.054 0.003-0.103 0.021-0.143 0.050l0.001-0.001-0.083-0.031c-0.231 0.019-0.4 0.048-0.515 0.083-0.063-0.004-0.137-0.007-0.211-0.007-0.109 0-0.217 0.005-0.324 0.016l0.013-0.001-0.411 0.035-0.189-0.021c-0.009-0.12 0.225-0.716 0.708-1.783 0.14-0.36 0.268-0.587 0.392-0.671 0.042 0.001 0.082 0.011 0.118 0.029l-0.002-0.001 0.292-0.1 0.149 0.024c0.251-0.021 0.543-0.093 0.877-0.216 0.017-0.003 0.038-0.004 0.058-0.004 0.047 0 0.092 0.008 0.134 0.022l-0.003-0.001 0.223-0.053 0.664-0.056c0.283-0.024 0.588-0.085 0.92-0.187l-0.007-0.069c-0.123 0.012-0.187-0.009-0.192-0.060-0.007-0.092-0.097-0.129-0.271-0.116l-0.007-0.068 0.183-0.053 0.48-0.040-0.007-0.068c-0.015 0-0.033 0-0.051 0-0.087 0-0.173-0.003-0.258-0.008l0.012 0.001-0.007-0.075 0.185-0.016c0.049-0.005 0.071-0.028 0.067-0.076-0.249 0.007-0.375-0.005-0.377-0.037-1.736 0.085-2.605 0.101-2.611 0.047-0.042 0.009-0.078 0.026-0.11 0.049l0.001-0.001-0.045-0.072c0.46-0.976 0.731-1.469 0.809-1.477-0.006 0.068-0.027 0.131-0.061 0.184l0.001-0.002 0.003 0.031 0.073-0.007c0.183-0.436 0.337-0.661 0.465-0.671 0.545-0.048-0.076-0.083 1.091-0.267 0.048 0.023 0.080 0.032 0.104 0.029 0.457-0.093 1.096-0.189 1.913-0.289l-0.005-0.069-0.436 0.040-0.005-0.067c0.050-0.004 0.095-0.022 0.131-0.051l-0 0 0.003 0.037c0.038-0.009 0.072-0.025 0.101-0.047l-0.001 0c0.076-0.008 0.133 0 0.173 0.021 0.102-0.030 0.225-0.056 0.351-0.072l0.013-0.001 0.273-0.027c0.067-0.043 0.097-0.080 0.095-0.116l-0.003-0.031c-0.022 0.002-0.047 0.003-0.073 0.003-0.059 0-0.117-0.006-0.173-0.017l0.006 0.001c-0.003-0.040 0.017-0.065 0.063-0.077l0.507-0.047 0.233-0.060c0.003 0.027 0.013 0.036 0.032 0.036 0.038-0.009 0.072-0.026 0.101-0.048l-0.001 0 0.039 0.005c-0.031 0.064-0.067 0.156-0.103 0.277l-0.067 0.005c-0.004-0.045-0.017-0.086-0.038-0.123l0.001 0.001-0.033 0.003c-0.616 1.716-0.892 2.516-1.461 3.833-0.104 0.337-0.192 0.524-0.267 0.565 0.003 0.037 0.027 0.056 0.067 0.052 0.002 0.019 0.002 0.040 0.002 0.062 0 0.158-0.045 0.306-0.122 0.432l0.002-0.004c-0.263 0.759-0.439 1.173-0.528 1.249l0.059 0.359c0.003 0.037-0.016 0.059-0.057 0.064l-0.063 0.004c-0.009-0.099-0.045-0.147-0.109-0.14l-0.033 0.003c-0.080 0.125-0.141 0.271-0.183 0.44l0.063-0.005c0.083-0.055 0.12-0.12 0.113-0.193l0.124-0.011 0.071 0.027c-0.057 0.089-0.083 0.16-0.079 0.215l0.033 0.057-0.080 0.189 0.003 0.031c0.004-0 0.009-0 0.015-0 0.081 0 0.157 0.025 0.219 0.068l-0.001-0.001c0.071-0.010 0.134-0.037 0.188-0.077l-0.001 0.001c0.072-0.007 0.337-0.009 0.795-0.009l0.231-0.079c0.28-0.003 0.324 0.005 0.567-0.016l0.099-0.009 0.053-0.036 0.003 0.031c0.253-0.021 0.269-0.005 0.469 0.019l0.003 0.031-0.14 0.013 0.005 0.059c0.042-0.003 0.080-0.019 0.111-0.043l-0 0c0.036-0.003 0.057 0.016 0.060 0.059-0.071 0.007-0.136 0.022-0.198 0.044l0.006-0.002-0.061-0.021c-0.097 0.027-0.076 0.033-0.143 0.039l-0.097-0.020c0.003 0.017-0.007 0.029-0.024 0.029 0.003 0.037 0.024 0.056 0.060 0.053l0.099-0.008 0.52-0.045 0.196-0.043c0.003 0.016 0.009 0.027 0.027 0.024l0.095-0.036 0.179-0.013c0.137-0.013 0.133-0.023 0.433-0.069-0.003-0.020 0.005-0.027 0.019-0.029l0.003 0.027c0.487-0.083 0.517-0.088 0.596-0.115l0.007 0.015c0.12-0.028 0.052-0.021 0.085-0.045 0.003 0.021 0.009 0.031 0.021 0.031l0.085-0.007-0.005-0.064-0.173-0.003-0.003-0.004-0.019 0.004h-0.024v0.005c-0.116 0.024-0.12 0.007-0.195 0.013l-0.435 0.024-0.003-0.031 0.243-0.033 0.088-0.007 0.049-0.036 0.003 0.032c0.341-0.029 0.463 0.056 2.041-0.28 0.085-0.008 0.079-0.079 0.133-0.227-0.004 0-0.008 0.001-0.012 0.001-0.026 0-0.050-0.007-0.071-0.018l0.001 0c-0.131 0.049-0.2 0.027-0.451 0.067-0.021 0.001-0.039-0.017-0.045-0.056l-0.003-0.027 0.241 0.008c0.045-0.004 0.133-0.012 0.264-0.085 0 0.021-0.048 0.033-0.013 0.031zM19.772 17.117l-0.112 0.011c-0.005-0.045 0.055-0.216 0.177-0.507l0.075-0.008c0.003 0.068-0.043 0.237-0.14 0.504zM19.907 16.577l-0.003-0.031c-0.003-0.037 0.021-0.064 0.073-0.076l0.003 0.031c0.003 0.045-0.021 0.072-0.073 0.076zM21.389 17.724l0.003 0.029-0.187 0.017-0.001-0.031zM21.165 17.704c0.003 0.037-0.053 0.080-0.177 0.123l-0.227-0.016-0.075 0.007-0.007-0.068zM22.664 10.805l-0.111 0.011-0.003-0.039c-0.003-0.037 0.019-0.064 0.067-0.076l0.040-0.003 0.076 0.031c0.003 0.045-0.020 0.072-0.069 0.076zM24.36 10.473l0.036-0.001 0.005 0.068-0.103 0.009c-0.003-0.037 0.017-0.064 0.061-0.076zM23.933 10.623l-0.168-0.019-0.003-0.031c0.22-0.019 0.293-0.043 0.428-0.080 0.003 0.027 0.027 0.035 0.069 0.031l0.005 0.068-0.067 0.008c-0.009 0.001-0.019 0.002-0.029 0.002-0.038 0-0.075-0.010-0.106-0.027l0.001 0.001c-0.037 0.025-0.081 0.042-0.129 0.047l-0.001 0zM24.144 11.237l-0.003-0.031 0.273-0.027 0.003 0.032zM24.436 11l-0.003-0.037 0.133-0.013 0.001 0.040zM24.467 10.536l-0.036 0.001 0.031-0.073 0.304-0.028 0.003 0.037c-0.114 0.014-0.216 0.036-0.314 0.066l0.013-0.003zM24.621 11.189l-0.005-0.068 0.133-0.012c0.044-0.005 0.067 0.017 0.069 0.064zM25.424 10.095l-0.171 0.047-0.031 0.003c-0.080 0.008-0.184 0.005-0.307-0.007 0.22-0.013 0.431-0.031 0.508-0.043zM25.243 10.853l0.003 0.031-0.236 0.021-0.003-0.031zM25.627 11.036c-0.003-0.028-0.048-0.048-0.14-0.057l-0.235 0.067-0.181 0.007c-0.040-0.028-0.061-0.047-0.064-0.061l0.209 0.012 0.469-0.076 0.24 0.009 0.003 0.039c-0.111 0.010-0.213 0.032-0.311 0.064l0.009-0.003zM28.043 10.412l0.053 0.003c0.079-0.078 0.173-0.142 0.277-0.187l0.006-0.002c-0.085 0.373-0.217 0.652-0.4 0.832l-0.133-0.080c0.069-0.154 0.136-0.341 0.19-0.535l0.007-0.030zM27.635 11.112l0.033-0.003c-0.045 0.085-0.085 0.131-0.119 0.133l-0.007-0.091c0.021 0 0.053-0.013 0.092-0.040zM27.372 11.74c0.064-0.256 0.125-0.4 0.183-0.439l0.003 0.031c-0.033 0.237-0.085 0.363-0.155 0.373l0.012 0.148c-0.057 0.081-0.083 0.143-0.080 0.191l-0.033 0.003-0.020-0.207c0.039-0.005 0.069-0.039 0.091-0.1zM27.269 12.081c-0.012 0.092-0.036 0.175-0.072 0.252l0.002-0.005-0.032 0.003-0.007-0.091c0.044-0.104 0.083-0.156 0.108-0.159zM25.356 17.635l-0.003-0.027 0.061-0.004 0.007 0.091c-0.033 0.003-0.057-0.017-0.065-0.060zM28.089 17.707c-0.003-0.021-0.012-0.031-0.032-0.029l-0.155 0.015-0.003-0.031h0.013l0.365-0.031 0.003 0.031c-0.107 0.004-0.171 0.021-0.192 0.045zM27.907 17.631c0.015 0.007 0.007 0.013 0 0.019-0.007-0.003-0.016-0.009 0-0.019zM27.927 17.204l-0.204 0.016-0.003-0.031 0.184-0.016 0.161-0.040c0.003 0.019 0.013 0.025 0.033 0.023 0.192-0.033 0.173-0.043 0.267-0.049 0.031-0.003 0.049 0.016 0.052 0.053zM28.64 17.141c-0.113-0.011-0.12-0.021-0.201-0.013l-0.003-0.027 0.183-0.016 0.003 0.027c-0.019 0.001 0.049 0.007 0.019 0.029zM28.653 17.109l-0.001-0.027 0.099-0.009 0.003 0.027zM28.875 17.089l-0.003-0.027c0.027-0.007 0.051-0.020 0.071-0.038l-0 0c0.051-0.004 0.076 0.029 0.081 0.067zM29.157 17.055l-0.003-0.032 0.12-0.009 0.003 0.031zM29.325 17.040c-0.003-0.036 0.012-0.057 0.043-0.061l0.040 0.052c-0.003-0.017 0.005-0.027 0.019-0.029l0.031 0.057zM27.535 17.813l-0.005-0.060-0.019 0.003zM31.701 16.733c0.019-0.011 0.028-0.023-0.017-0.031-0.021 0.024 0.024 0.032-0.023 0.033l0.003 0.021 0.027-0.019-0.027 0.021v0.003l-0.051 0.064 0.1-0.036h0.012zM31.875 16.869l-0.019 0.003 0.005 0.059 0.14-0.012c-0.003-0.037-0.096-0.049-0.127-0.049zM31.659 16.765l0.003-0.003v-0.003z"></path>
</symbol>
<symbol id="icon-bootstrap" viewBox="0 0 32 32">
<title>bootstrap</title>
<path fill="#563d7c" style="fill: var(--color5, #563d7c)" d="M26.667 0h-21.333c-2.943 0.008-5.325 2.391-5.333 5.333v21.333c0 2.933 2.4 5.333 5.333 5.333h21.333c2.933 0 5.333-2.4 5.333-5.333v-21.333c0-2.933-2.4-5.333-5.333-5.333zM23.751 22.473c-0.267 0.643-0.689 1.209-1.231 1.645-0.56 0.453-1.269 0.827-2.143 1.093-0.872 0.271-1.909 0.407-3.111 0.407h-8.576v-18.667h9.069c1.677 0 3.021 0.377 4.027 1.147 1.013 0.773 1.517 1.925 1.517 3.48 0 0.94-0.229 1.747-0.691 2.413-0.459 0.663-1.12 1.181-1.973 1.541v0.061c1.139 0.24 2.020 0.78 2.6 1.62s0.877 1.901 0.877 3.183c0 0.717-0.139 1.4-0.4 2.037zM20.049 17.873c-0.547-0.5-1.315-0.744-2.307-0.744h-5.763v5.824h5.779c0.987 0 1.76-0.256 2.307-0.773 0.547-0.513 0.827-1.245 0.827-2.187-0.009-0.92-0.28-1.632-0.827-2.12zM19.249 14.109c0.528-0.448 0.787-1.089 0.787-1.925 0-0.939-0.233-1.605-0.707-1.987-0.469-0.38-1.147-0.577-2.037-0.577h-5.333v5.151h5.333c0.777 0 1.44-0.227 1.957-0.661z"></path>
</symbol>
<symbol id="icon-codepen" viewBox="0 0 32 32">
<title>codepen</title>
<path d="M32 10.909l-0.024-0.116-0.023-0.067c-0.013-0.032-0.024-0.067-0.040-0.1-0.004-0.024-0.020-0.045-0.027-0.067l-0.047-0.089-0.040-0.067-0.059-0.080-0.061-0.060-0.080-0.060-0.061-0.040-0.080-0.059-0.059-0.053-0.020-0.027-14.607-9.772c-0.463-0.309-1.061-0.309-1.523 0l-14.805 9.883-0.051 0.053-0.067 0.075-0.049 0.060-0.067 0.080c-0.027 0.023-0.040 0.040-0.040 0.061l-0.067 0.080-0.027 0.080c-0.027 0.013-0.027 0.053-0.040 0.093l-0.013 0.067c-0.025 0.041-0.025 0.081-0.025 0.121v9.996c0 0.059 0.004 0.12 0.013 0.18l0.013 0.061c0.007 0.040 0.013 0.080 0.027 0.115l0.020 0.067c0.013 0.036 0.021 0.071 0.036 0.1l0.029 0.067c0 0.013 0.020 0.053 0.040 0.080l0.040 0.053c0.020 0.013 0.040 0.053 0.060 0.080l0.040 0.053 0.053 0.053c0.013 0.017 0.013 0.040 0.040 0.040l0.080 0.056 0.053 0.040 0.013 0.019 14.627 9.773c0.219 0.16 0.5 0.217 0.76 0.217s0.52-0.080 0.76-0.24l14.877-9.875 0.069-0.077 0.044-0.060 0.053-0.080 0.040-0.067 0.040-0.093 0.021-0.069 0.040-0.103 0.020-0.060 0.040-0.107v-10c0-0.067 0-0.127-0.021-0.187l-0.019-0.060 0.059 0.004zM16.013 19.283l-4.867-3.253 4.867-3.256 4.867 3.253zM14.635 10.384l-5.964 3.987-4.817-3.221 10.781-7.187zM6.195 16.028l-3.443 2.307v-4.601zM8.671 17.695l5.964 3.987v6.427l-10.781-7.188 4.824-3.223zM17.387 21.681l5.965-3.973 4.817 3.227-10.783 7.187zM25.827 16.041l3.444-2.293v4.608zM23.353 14.388l-5.964-3.988v-6.44l10.78 7.187-4.816 3.22z"></path>
</symbol>
<symbol id="icon-codesandbox" viewBox="0 0 32 32">
<title>codesandbox</title>
<path d="M2.667 8l13.94-8 13.94 8 0.12 15.933-14.060 8.067-13.94-8zM5.451 11.308v6.343l4.46 2.48v4.688l5.296 3.061v-11.029zM27.769 11.308l-9.756 5.543v11.029l5.296-3.061v-4.685l4.46-2.481zM6.845 8.801l9.737 5.525 9.76-5.573-5.161-2.929-4.547 2.593-4.573-2.624z"></path>
</symbol>
<symbol id="icon-css3" viewBox="0 0 32 32">
<title>css3</title>
<path fill="#1572b6" style="fill: var(--color6, #1572b6)" d="M2 0h28l-2.547 28.751-11.484 3.249-11.42-3.251zM24.787 5.884l-17.573-0.004 0.284 3.496 13.5 0.003-0.34 3.621h-8.853l0.32 3.431h8.243l-0.488 4.697-3.88 1.072-3.941-1.080-0.251-2.813h-3.48l0.387 5.14 7.287 2.271 7.164-2.040z"></path>
</symbol>
<symbol id="icon-facebook1" viewBox="0 0 32 32">
<title>facebook1</title>
<path fill="#1877f2" style="fill: var(--color7, #1877f2)" d="M31.997 15.999c0-8.836-7.163-15.999-15.999-15.999s-15.999 7.163-15.999 15.999c0 7.985 5.851 14.604 13.499 15.804v-11.18h-4.062v-4.625h4.062v-3.525c0-4.010 2.389-6.225 6.043-6.225 1.75 0 3.581 0.313 3.581 0.313v3.937h-2.017c-1.987 0-2.607 1.233-2.607 2.498v3.001h4.437l-0.709 4.625h-3.728v11.18c7.649-1.2 13.499-7.819 13.499-15.804z"></path>
</symbol>
<symbol id="icon-filezilla" viewBox="0 0 32 32">
<title>filezilla</title>
<path fill="#bf0000" style="fill: var(--color8, #bf0000)" d="M32.003 2.48v-1.412c-0.283 0-0.559-0.116-0.757-0.315-0.197-0.197-0.312-0.475-0.312-0.756h-1.415c-0.028 0.592-0.533 1.048-1.125 1.020-0.551-0.028-0.991-0.469-1.019-1.020h-1.415c-0.036 0.592-0.544 1.043-1.137 1.007-0.54-0.033-0.972-0.467-1.007-1.007h-1.412c-0.031 0.592-0.533 1.048-1.127 1.020-0.551-0.028-0.991-0.469-1.020-1.020h-1.413c-0.029 0.592-0.532 1.048-1.125 1.020-0.551-0.028-0.991-0.469-1.020-1.020h-1.412c-0.036 0.592-0.544 1.043-1.137 1.007-0.54-0.033-0.972-0.467-1.007-1.007h-1.413c-0.015 0.592-0.511 1.055-1.101 1.032-0.563-0.019-1.015-0.471-1.035-1.032h-1.413c-0.028 0.592-0.533 1.048-1.125 1.020-0.551-0.029-0.992-0.469-1.019-1.020h-1.413c-0.021 0.592-0.519 1.055-1.109 1.032-0.563-0.019-1.013-0.471-1.033-1.032h-1.413c0 0.281-0.115 0.559-0.313 0.756-0.199 0.199-0.475 0.315-0.757 0.315v1.412c0.592 0.023 1.053 0.519 1.032 1.109-0.017 0.563-0.469 1.015-1.032 1.033v1.415c0.592 0.021 1.053 0.517 1.032 1.109-0.017 0.563-0.469 1.013-1.032 1.033v1.412c0.592 0 1.072 0.481 1.072 1.073s-0.48 1.072-1.072 1.072v1.412c0.592 0 1.072 0.479 1.072 1.072s-0.479 1.072-1.072 1.072v1.413c0.592 0.021 1.053 0.519 1.032 1.109-0.019 0.563-0.471 1.013-1.032 1.033v1.415c0.592 0 1.072 0.479 1.072 1.071 0 0.593-0.479 1.073-1.072 1.073v1.415c0.592 0.021 1.053 0.516 1.032 1.107-0.019 0.563-0.471 1.016-1.032 1.033v1.415c0.592 0 1.072 0.479 1.072 1.073 0 0.591-0.479 1.071-1.072 1.071v1.415c0.589 0.003 1.069 0.479 1.071 1.071h1.413c0.036-0.591 0.547-1.041 1.139-1.005 0.541 0.033 0.972 0.464 1.005 1.005h1.415c0.028-0.591 0.533-1.047 1.125-1.019 0.551 0.028 0.991 0.469 1.019 1.019h1.412c0.031-0.591 0.533-1.047 1.127-1.019 0.551 0.028 0.991 0.469 1.019 1.019h1.413c0.023-0.591 0.519-1.055 1.109-1.033 0.563 0.021 1.015 0.472 1.033 1.033h1.415c0.028-0.591 0.533-1.047 1.125-1.019 0.551 0.028 0.991 0.469 1.019 1.019h1.412c0.031-0.591 0.533-1.047 1.127-1.019 0.551 0.028 0.991 0.469 1.020 1.019h1.412c0.031-0.591 0.533-1.047 1.127-1.019 0.551 0.028 0.991 0.469 1.020 1.019h1.413c0.021-0.591 0.517-1.055 1.108-1.033 0.563 0.021 1.015 0.472 1.033 1.033h1.407c0-0.281 0.115-0.557 0.313-0.757 0.197-0.197 0.473-0.312 0.756-0.312v-1.415c-0.592-0.036-1.041-0.544-1.007-1.136 0.033-0.541 0.467-0.973 1.007-1.005v-1.415c-0.592-0.031-1.048-0.533-1.019-1.125 0.028-0.552 0.468-0.992 1.019-1.019v-1.415c-0.592-0.036-1.041-0.547-1.007-1.139 0.033-0.541 0.467-0.972 1.007-1.005v-1.415c-0.592-0.028-1.048-0.533-1.019-1.125 0.028-0.549 0.468-0.989 1.019-1.019v-1.411c-0.592-0.036-1.041-0.547-1.007-1.139 0.033-0.541 0.467-0.972 1.007-1.005v-1.413c-0.592-0.028-1.048-0.533-1.019-1.125 0.028-0.551 0.468-0.991 1.019-1.019v-1.413c-0.592-0.036-1.041-0.544-1.007-1.137 0.033-0.54 0.467-0.972 1.007-1.005v-1.413c-0.592-0.029-1.048-0.533-1.020-1.125 0.028-0.551 0.468-0.991 1.020-1.019zM26.579 15.597l-8.539 8.301c0.773 0.12 1.52 0.3 2.323 0.3 1.953 0 4.197-0.593 5.716-1.221l-0.779 3.661c-2.235 1.073-3.601 1.161-4.937 1.161-1.46 0-2.859-0.476-4.287-0.476-0.804 0-1.965 0.060-2.679 0.533l-1.548-2.737 8.809-8.721h-10.137l-1.935 9.077h-4.227l4.407-20.773h13.987l-0.893 4.195h-9.732l-0.833 3.9h15.969l-0.685 2.8z"></path>
</symbol>
<symbol id="icon-git" viewBox="0 0 32 32">
<title>git</title>
<path fill="#f05032" style="fill: var(--color9, #f05032)" d="M31.395 14.573l-13.972-13.971c-0.805-0.804-2.109-0.804-2.917 0l-2.895 2.9 3.68 3.68c0.86-0.287 1.839-0.093 2.519 0.588 0.688 0.687 0.877 1.677 0.584 2.533l3.544 3.547c0.86-0.297 1.849-0.104 2.533 0.58 0.961 0.96 0.961 2.512 0 3.472-0.959 0.959-2.508 0.959-3.467 0-0.719-0.721-0.899-1.783-0.539-2.661l-3.319-3.301v8.7c0.235 0.115 0.456 0.271 0.651 0.464 0.951 0.961 0.951 2.511 0 3.467-0.959 0.961-2.519 0.961-3.479 0-0.959-0.959-0.959-2.505 0-3.464 0.243-0.24 0.516-0.421 0.807-0.541v-8.785c-0.289-0.121-0.565-0.296-0.8-0.535-0.727-0.727-0.901-1.789-0.528-2.679l-3.616-3.633-9.581 9.575c-0.8 0.807-0.8 2.112 0 2.919l13.973 13.969c0.805 0.805 2.109 0.805 2.915 0l13.907-13.907c0.807-0.804 0.807-2.109 0-2.916z"></path>
</symbol>
<symbol id="icon-github" viewBox="0 0 32 32">
<title>github</title>
<path d="M16 0.396c-8.84 0-16 7.164-16 16 0 7.071 4.584 13.067 10.94 15.18 0.8 0.151 1.093-0.344 1.093-0.769 0-0.38-0.013-1.387-0.020-2.72-4.451 0.965-5.389-2.147-5.389-2.147-0.728-1.847-1.78-2.34-1.78-2.34-1.449-0.992 0.112-0.972 0.112-0.972 1.607 0.112 2.451 1.648 2.451 1.648 1.427 2.447 3.745 1.74 4.66 1.331 0.144-1.035 0.556-1.74 1.013-2.14-3.553-0.4-7.288-1.776-7.288-7.907 0-1.747 0.62-3.173 1.647-4.293-0.18-0.404-0.72-2.031 0.14-4.235 0 0 1.34-0.429 4.4 1.64 1.28-0.356 2.64-0.532 4-0.54 1.36 0.008 2.72 0.184 4 0.54 3.040-2.069 4.38-1.64 4.38-1.64 0.86 2.204 0.32 3.831 0.16 4.235 1.020 1.12 1.64 2.547 1.64 4.293 0 6.147-3.74 7.5-7.3 7.893 0.56 0.48 1.080 1.461 1.080 2.96 0 2.141-0.020 3.861-0.020 4.381 0 0.42 0.28 0.92 1.1 0.76 6.401-2.099 10.981-8.099 10.981-15.159 0-8.836-7.164-16-16-16z"></path>
</symbol>
<symbol id="icon-gulp" viewBox="0 0 32 32">
<title>gulp</title>
<path fill="#da4648" style="fill: var(--color10, #da4648)" d="M20.208 25.909l0.848-1.445c0 0-1.925 0.788-5.147 0.788-3.224 0-5.12-0.757-5.12-0.757l0.948 1.577 0.336 4.972c0 0.537 1.752 0.957 3.915 0.957 2.164 0 3.917-0.419 3.917-0.957l0.305-5.113zM21.028 16.515c-1.025 0.061-1.537 1.204-2.052 2.407-0.191 0.44-0.84 2.316-1.264 2.084-0.424-0.231 0.551-1.772 0.825-2.689-0.316 0.232-1.473 1.132-1.772 0.287-0.477 0.419-1.505 0.64-1.389-0.439-0.255 0.46-0.828 1.097-1.519 0.819-0.897-0.34 0.527-3.215 0.88-3.076 0.355 0.161-0.071 0.8-0.181 1.059-0.248 0.559-0.531 1.277-0.34 1.417 0.32 0.259 1.205-0.937 1.225-0.959 0.165-0.22 0.639-1.639 1.017-1.476 0.38 0.179-0.948 2.055-0.453 2.435 0.101 0.080 0.511-0.040 0.759-0.319 0.16-0.16 0.104-0.56 0.639-1.837 0.539-1.279 1.019-2.875 1.385-2.755s0.065 0.937-0.068 1.257c-0.619 1.437-1.691 3.792-1.187 3.613 0.499-0.18 0.759-0.18 1.257-0.759s0.46-1.536 0.799-1.516c0.32 0.019 0.28 0.339 0.2 0.557 0.32-0.36 1.536-1.157 1.817-0.379 0.339 0.917-1.739 2.256-1.219 2.176 0.5-0.060 1.317-0.579 1.677-1.057l0.959-8.667c0 0-0.979 0.8-7.148 0.8s-7.045-0.779-7.045-0.779l0.817 7.907c0.44-1.237 1.477-3.752 3.096-3.653 0.739 0.040 1.737 1.479 0.877 1.519-0.36 0.020-0.4-0.719-0.819-0.819-0.319-0.061-0.739 0.18-1.017 0.46-0.539 0.539-1.739 2.675-1.579 3.735 0.2 1.357 1.876-0.461 2.156-1 0.199-0.377 0.339-1.517 0.757-1.397 0.44 0.12-0.039 1.299-0.36 2.316-0.36 1.159-0.539 2.375-0.976 2.235-0.44-0.139 0.279-1.636 0.237-1.896-0.417 0.399-1.177 1.36-2.175 0.879l0.499 4.932c0 0 1.359 1.057 5.431 1.057s5.491-1.057 5.491-1.057l0.639-5.711c-0.519 0.52-2.156 1.417-2.256 0.4-0.079-0.819 1.777-1.997 1.299-2.019zM23.128 0.892l-3.545 3.733-0.648 2.535c2.508 0.16 4.252 0.515 4.252 0.925 0 0.559-3.219 1.009-7.188 1.009s-7.187-0.457-7.187-1.017c0-0.559 3.219-1.019 7.188-1.019 0.564 0 1.125 0 1.685 0.021l0.748-3.035 3.767-3.993c0.091-0.12 0.373-0.020 0.632 0.2 0.259 0.199 0.399 0.459 0.319 0.579v0.040zM18.016 8.619c0 0-0.697 0-0.813-0.107-0.029-0.033-0.048-0.077-0.048-0.12 0-0.077 0.052-0.121 0.12-0.147l0.059 0.1c-0.028 0.008-0.039 0.020-0.044 0.031 0 0.055 0.419 0.092 0.74 0.088 0.319-0.004 0.708-0.031 0.711-0.085 0-0.016-0.031-0.031-0.081-0.044l0.060-0.096c0.084 0.027 0.156 0.077 0.156 0.161 0 0.147-0.188 0.171-0.307 0.188-0.143 0.020-0.549 0.031-0.549 0.031z"></path>
</symbol>
<symbol id="icon-html5" viewBox="0 0 32 32">
<title>html5</title>
<path fill="#e34f26" style="fill: var(--color11, #e34f26)" d="M2 0h28l-2.547 28.751-11.484 3.249-11.419-3.251zM11.375 13l-0.309-3.624 13.412 0.004 0.307-3.496-17.568-0.004 0.931 10.68h12.168l-0.435 4.568-3.88 1.072-3.94-1.080-0.251-2.813h-3.479l0.44 5.561 7.229 1.933 7.172-1.924 0.992-10.876z"></path>
</symbol>
<symbol id="icon-instagram1" viewBox="0 0 32 32">
<title>instagram1</title>
<path fill="#e4405f" style="fill: var(--color12, #e4405f)" d="M16 0c-4.347 0-4.889 0.020-6.596 0.096-1.704 0.080-2.864 0.348-3.884 0.744-1.052 0.408-1.945 0.956-2.835 1.845s-1.439 1.781-1.845 2.835c-0.396 1.020-0.665 2.18-0.744 3.884-0.080 1.707-0.096 2.249-0.096 6.596s0.020 4.889 0.096 6.596c0.080 1.703 0.348 2.864 0.744 3.884 0.408 1.051 0.956 1.945 1.845 2.835 0.889 0.888 1.781 1.439 2.835 1.845 1.021 0.395 2.181 0.665 3.884 0.744 1.707 0.080 2.249 0.096 6.596 0.096s4.889-0.020 6.596-0.096c1.703-0.080 2.864-0.349 3.884-0.744 1.051-0.408 1.945-0.957 2.835-1.845 0.888-0.889 1.439-1.78 1.845-2.835 0.395-1.020 0.665-2.181 0.744-3.884 0.080-1.707 0.096-2.249 0.096-6.596s-0.020-4.889-0.096-6.596c-0.080-1.703-0.349-2.865-0.744-3.884-0.408-1.052-0.957-1.945-1.845-2.835-0.889-0.889-1.78-1.439-2.835-1.845-1.020-0.396-2.181-0.665-3.884-0.744-1.707-0.080-2.249-0.096-6.596-0.096zM16 2.88c4.271 0 4.78 0.021 6.467 0.095 1.56 0.073 2.407 0.332 2.969 0.553 0.749 0.289 1.28 0.636 1.843 1.195 0.559 0.56 0.905 1.092 1.195 1.841 0.219 0.563 0.48 1.409 0.551 2.969 0.076 1.688 0.093 2.195 0.093 6.467s-0.020 4.78-0.099 6.467c-0.081 1.56-0.341 2.407-0.561 2.969-0.299 0.749-0.639 1.28-1.199 1.843-0.559 0.559-1.099 0.905-1.84 1.195-0.56 0.219-1.42 0.48-2.98 0.551-1.699 0.076-2.199 0.093-6.479 0.093-4.281 0-4.781-0.020-6.479-0.099-1.561-0.081-2.421-0.341-2.981-0.561-0.759-0.299-1.28-0.639-1.839-1.199-0.561-0.559-0.92-1.099-1.2-1.84-0.22-0.56-0.479-1.42-0.56-2.98-0.060-1.68-0.081-2.199-0.081-6.459 0-4.261 0.021-4.781 0.081-6.481 0.081-1.56 0.34-2.419 0.56-2.979 0.28-0.76 0.639-1.28 1.2-1.841 0.559-0.559 1.080-0.919 1.839-1.197 0.56-0.221 1.401-0.481 2.961-0.561 1.7-0.060 2.2-0.080 6.479-0.080zM16 7.784c-4.54 0-8.216 3.68-8.216 8.216 0 4.54 3.68 8.216 8.216 8.216 4.54 0 8.216-3.68 8.216-8.216 0-4.54-3.68-8.216-8.216-8.216zM16 21.333c-2.947 0-5.333-2.387-5.333-5.333s2.387-5.333 5.333-5.333 5.333 2.387 5.333 5.333-2.387 5.333-5.333 5.333zM26.461 7.46c0 1.060-0.861 1.92-1.92 1.92-1.060 0-1.92-0.861-1.92-1.92s0.861-1.919 1.92-1.919c1.057-0.001 1.92 0.86 1.92 1.919z"></path>
</symbol>
<symbol id="icon-javascript" viewBox="0 0 32 32">
<title>javascript</title>
<path fill="#f7df1e" style="fill: var(--color13, #f7df1e)" d="M0 0h32v32h-32zM29.379 24.368c-0.233-1.46-1.184-2.687-4.004-3.831-0.981-0.46-2.072-0.78-2.396-1.52-0.121-0.44-0.14-0.68-0.061-0.94 0.2-0.861 1.22-1.12 2.020-0.88 0.52 0.16 1 0.56 1.301 1.2 1.379-0.901 1.379-0.901 2.34-1.5-0.36-0.56-0.539-0.801-0.781-1.040-0.84-0.94-1.959-1.42-3.779-1.379l-0.94 0.119c-0.901 0.22-1.76 0.7-2.28 1.34-1.52 1.721-1.081 4.721 0.759 5.961 1.82 1.36 4.481 1.659 4.821 2.94 0.32 1.56-1.16 2.060-2.621 1.88-1.081-0.24-1.68-0.781-2.34-1.781l-2.44 1.401c0.28 0.64 0.6 0.919 1.080 1.479 2.32 2.341 8.12 2.221 9.161-1.339 0.039-0.12 0.32-0.94 0.099-2.2zM17.401 14.708h-2.997c0 2.584-0.012 5.152-0.012 7.74 0 1.643 0.084 3.151-0.184 3.615-0.44 0.919-1.573 0.801-2.088 0.64-0.528-0.261-0.796-0.621-1.107-1.14-0.084-0.14-0.147-0.261-0.169-0.261l-2.433 1.5c0.407 0.84 1 1.563 1.765 2.023 1.14 0.68 2.672 0.9 4.276 0.54 1.044-0.301 1.944-0.921 2.415-1.881 0.68-1.24 0.536-2.76 0.529-4.461 0.016-2.739 0-5.479 0-8.239z"></path>
</symbol>
<symbol id="icon-laravel" viewBox="0 0 32 32">
<title>laravel</title>
<path fill="#ff2d20" style="fill: var(--color14, #ff2d20)" d="M31.525 7.24c0.012 0.043 0.019 0.087 0.019 0.132v6.867c0 0.18-0.097 0.347-0.252 0.435l-5.764 3.32v6.579c0 0.18-0.096 0.344-0.251 0.435l-12.036 6.927c-0.028 0.016-0.057 0.027-0.088 0.036-0.011 0.003-0.021 0.011-0.032 0.013-0.084 0.024-0.173 0.024-0.256 0-0.015-0.003-0.027-0.011-0.039-0.016-0.028-0.011-0.057-0.019-0.084-0.033l-12.031-6.927c-0.156-0.091-0.252-0.255-0.252-0.435v-20.607c0-0.044 0.007-0.088 0.019-0.131 0.004-0.016 0.013-0.028 0.019-0.043 0.008-0.027 0.019-0.053 0.031-0.077 0.005-0.017 0.020-0.029 0.031-0.044 0.016-0.021 0.028-0.041 0.044-0.060 0.016-0.013 0.033-0.024 0.049-0.036 0.019-0.016 0.036-0.032 0.055-0.045h0.001l6.017-3.463c0.153-0.089 0.345-0.089 0.5 0l6.019 3.463c0.020 0.013 0.036 0.028 0.055 0.044 0.016 0.012 0.033 0.024 0.049 0.036 0.017 0.019 0.028 0.039 0.044 0.060 0.011 0.015 0.027 0.028 0.033 0.044 0.015 0.025 0.023 0.051 0.032 0.077 0.004 0.015 0.015 0.028 0.017 0.043 0.013 0.041 0.019 0.085 0.019 0.131v12.869l5.013-2.885v-6.579c0-0.044 0.007-0.088 0.019-0.131 0.004-0.015 0.012-0.028 0.017-0.043 0.009-0.027 0.019-0.052 0.032-0.079 0.009-0.016 0.024-0.028 0.033-0.044 0.016-0.020 0.028-0.040 0.044-0.057 0.016-0.016 0.033-0.027 0.049-0.037 0.019-0.015 0.035-0.031 0.055-0.043h0.001l6.017-3.464c0.155-0.089 0.345-0.089 0.5 0l6.017 3.464c0.021 0.013 0.036 0.028 0.056 0.041 0.016 0.013 0.033 0.024 0.048 0.037 0.017 0.019 0.029 0.039 0.045 0.059 0.011 0.016 0.025 0.028 0.032 0.044 0.015 0.027 0.024 0.052 0.032 0.079 0.008 0.015 0.016 0.029 0.020 0.044zM30.539 13.949v-5.711l-5.013 2.885v5.711zM24.524 24.283v-5.716l-11.031 6.297v5.768zM1.46 4.832v19.451l11.031 6.349v-5.768l-5.768-3.264c-0.019-0.013-0.033-0.028-0.053-0.041-0.015-0.013-0.032-0.024-0.047-0.036l-0.001-0.003c-0.017-0.016-0.028-0.033-0.041-0.052-0.013-0.016-0.028-0.031-0.037-0.049h-0.003c-0.011-0.019-0.017-0.041-0.027-0.063-0.008-0.021-0.019-0.036-0.024-0.057-0.005-0.024-0.008-0.049-0.011-0.076-0.003-0.019-0.008-0.036-0.008-0.055v-13.449l-2.907-1.676zM6.975 1.080l-5.013 2.885 5.013 2.885 5.011-2.885zM9.583 19.087l2.909-1.675v-12.58l-5.016 2.887v12.58zM25.025 4.485l-5.013 2.885 5.013 2.884 5.012-2.885zM24.524 11.124l-5.015-2.885v5.711l5.015 2.885zM12.991 23.996l11.027-6.293-5.009-2.884-11.020 6.345z"></path>
</symbol>
<symbol id="icon-linkedin" viewBox="0 0 32 32">
<title>linkedin</title>
<path fill="#0077b5" style="fill: var(--color15, #0077b5)" d="M27.263 27.269h-4.739v-7.425c0-1.771-0.036-4.049-2.469-4.049-2.471 0-2.848 1.927-2.848 3.919v7.556h-4.739v-15.269h4.552v2.081h0.061c0.636-1.2 2.183-2.467 4.493-2.467 4.801 0 5.689 3.16 5.689 7.273zM7.116 9.911c-1.525 0-2.751-1.235-2.751-2.753 0-1.517 1.227-2.751 2.751-2.751 1.52 0 2.752 1.233 2.752 2.751 0 1.519-1.233 2.753-2.752 2.753zM9.492 27.269h-4.752v-15.269h4.752zM29.633 0h-27.272c-1.305 0-2.361 1.032-2.361 2.305v27.389c0 1.275 1.056 2.305 2.361 2.305h27.268c1.304 0 2.371-1.031 2.371-2.305v-27.389c0-1.273-1.067-2.305-2.371-2.305z"></path>
</symbol>
<symbol id="icon-mysql" viewBox="0 0 32 32">
<title>mysql</title>
<path fill="#4479a1" style="fill: var(--color16, #4479a1)" d="M21.873 7.568c-0.153 0-0.257 0.019-0.365 0.044v0.017h0.019c0.072 0.139 0.195 0.24 0.285 0.364 0.072 0.143 0.133 0.285 0.205 0.427l0.019-0.020c0.125-0.088 0.187-0.229 0.187-0.444-0.053-0.063-0.061-0.125-0.107-0.187-0.053-0.089-0.168-0.133-0.243-0.201zM7.693 25.16h-1.236c-0.040-2.083-0.164-4.040-0.36-5.88h-0.011l-1.88 5.88h-0.94l-1.867-5.88h-0.013c-0.137 1.764-0.224 3.724-0.26 5.88h-1.127c0.073-2.621 0.256-5.080 0.547-7.373h1.533l1.78 5.419h0.011l1.796-5.419h1.46c0.323 2.687 0.512 5.147 0.567 7.373zM13.049 19.72c-0.504 2.727-1.168 4.711-1.989 5.947-0.643 0.955-1.347 1.431-2.111 1.431-0.204 0-0.453-0.061-0.755-0.184v-0.659c0.147 0.023 0.32 0.035 0.515 0.035 0.357 0 0.644-0.1 0.863-0.296 0.263-0.24 0.393-0.509 0.393-0.807 0-0.207-0.103-0.627-0.307-1.259l-1.352-4.208h1.213l0.969 3.147c0.219 0.715 0.311 1.213 0.273 1.497 0.533-1.419 0.904-2.969 1.113-4.644zM29.483 25.16h-3.507v-7.373h1.18v6.467h2.327zM25.056 25.34l-1.355-0.667c0.12-0.101 0.236-0.211 0.34-0.333 0.577-0.675 0.864-1.677 0.864-3.004 0-2.44-0.957-3.661-2.873-3.661-0.939 0-1.672 0.309-2.2 0.929-0.573 0.677-0.861 1.675-0.861 2.993 0 1.296 0.253 2.248 0.765 2.853 0.467 0.547 1.169 0.82 2.111 0.82 0.352 0 0.675-0.044 0.967-0.131l1.767 1.029zM20.667 23.684c-0.3-0.48-0.449-1.253-0.449-2.315 0-1.857 0.565-2.787 1.693-2.787 0.591 0 1.027 0.223 1.303 0.667 0.299 0.483 0.448 1.248 0.448 2.297 0 1.872-0.565 2.811-1.693 2.811-0.593 0-1.027-0.223-1.301-0.673zM18.456 23.117c0 0.627-0.229 1.141-0.688 1.541s-1.071 0.6-1.845 0.6c-0.724 0-1.419-0.229-2.097-0.687l0.316-0.635c0.584 0.293 1.111 0.437 1.587 0.437 0.443 0 0.791-0.097 1.044-0.293 0.251-0.196 0.4-0.472 0.4-0.82 0-0.44-0.307-0.813-0.864-1.127-0.517-0.284-1.551-0.876-1.551-0.876-0.563-0.409-0.843-0.848-0.843-1.569 0-0.6 0.209-1.080 0.627-1.447 0.42-0.371 0.96-0.553 1.627-0.553 0.683 0 1.307 0.181 1.867 0.547l-0.284 0.635c-0.48-0.203-0.953-0.307-1.419-0.307-0.377 0-0.669 0.091-0.872 0.275-0.204 0.181-0.331 0.413-0.331 0.699 0 0.437 0.312 0.813 0.888 1.133 0.524 0.287 1.583 0.893 1.583 0.893 0.577 0.407 0.864 0.84 0.856 1.553zM30.965 15.315c-0.713-0.019-1.267 0.053-1.729 0.251-0.133 0.053-0.347 0.053-0.365 0.223 0.073 0.071 0.084 0.187 0.147 0.285 0.107 0.179 0.291 0.417 0.461 0.543 0.187 0.147 0.373 0.288 0.569 0.413 0.347 0.213 0.74 0.34 1.080 0.555 0.193 0.125 0.391 0.284 0.587 0.417 0.097 0.067 0.16 0.187 0.285 0.229v-0.027c-0.061-0.080-0.080-0.196-0.14-0.285-0.089-0.089-0.179-0.169-0.267-0.257-0.259-0.347-0.58-0.649-0.927-0.9-0.285-0.195-0.909-0.467-1.027-0.793l-0.017-0.019c0.195-0.017 0.427-0.088 0.613-0.141 0.303-0.080 0.58-0.063 0.893-0.141 0.141-0.036 0.284-0.080 0.427-0.125v-0.080c-0.16-0.16-0.28-0.377-0.445-0.527-0.453-0.393-0.956-0.776-1.472-1.097-0.28-0.179-0.635-0.293-0.929-0.445-0.107-0.053-0.285-0.080-0.347-0.169-0.16-0.195-0.253-0.453-0.367-0.685-0.256-0.491-0.507-1.033-0.729-1.551-0.16-0.349-0.257-0.697-0.453-1.017-0.92-1.516-1.916-2.435-3.448-3.333-0.329-0.187-0.724-0.267-1.141-0.365-0.223-0.011-0.445-0.027-0.667-0.036-0.147-0.063-0.288-0.232-0.413-0.313-0.507-0.32-1.819-1.013-2.192-0.096-0.24 0.579 0.356 1.149 0.563 1.443 0.153 0.204 0.347 0.437 0.453 0.667 0.063 0.155 0.080 0.313 0.143 0.475 0.141 0.392 0.276 0.829 0.463 1.196 0.097 0.187 0.204 0.383 0.329 0.551 0.072 0.097 0.195 0.143 0.223 0.303-0.125 0.181-0.133 0.445-0.205 0.667-0.32 1.009-0.195 2.257 0.259 3 0.143 0.221 0.483 0.712 0.937 0.524 0.4-0.16 0.312-0.667 0.427-1.113 0.027-0.107 0.009-0.177 0.064-0.249v0.020c0.125 0.251 0.251 0.489 0.365 0.74 0.275 0.437 0.755 0.891 1.156 1.193 0.213 0.16 0.383 0.437 0.649 0.536v-0.027h-0.020c-0.057-0.077-0.133-0.115-0.205-0.177-0.16-0.16-0.34-0.356-0.467-0.533-0.373-0.503-0.703-1.053-0.996-1.624-0.147-0.28-0.269-0.581-0.387-0.857-0.053-0.107-0.053-0.267-0.143-0.32-0.133 0.195-0.329 0.364-0.427 0.604-0.169 0.384-0.187 0.856-0.251 1.347-0.036 0.009-0.019 0-0.036 0.019-0.285-0.069-0.383-0.365-0.489-0.613-0.267-0.633-0.311-1.651-0.080-2.38 0.063-0.187 0.329-0.776 0.223-0.955-0.056-0.169-0.232-0.267-0.329-0.404-0.116-0.165-0.24-0.38-0.32-0.569-0.213-0.499-0.32-1.051-0.552-1.549-0.107-0.231-0.293-0.472-0.445-0.684-0.169-0.24-0.356-0.409-0.491-0.693-0.044-0.097-0.107-0.259-0.036-0.365 0.019-0.072 0.056-0.1 0.125-0.12 0.117-0.096 0.447 0.029 0.563 0.083 0.329 0.133 0.607 0.259 0.883 0.445 0.125 0.088 0.26 0.257 0.42 0.301h0.187c0.285 0.063 0.607 0.019 0.873 0.097 0.473 0.152 0.9 0.373 1.283 0.613 1.168 0.741 2.128 1.793 2.78 3.048 0.107 0.205 0.153 0.393 0.251 0.607 0.187 0.44 0.417 0.884 0.607 1.309 0.187 0.42 0.367 0.848 0.635 1.196 0.133 0.187 0.669 0.284 0.909 0.381 0.177 0.080 0.453 0.153 0.613 0.251 0.307 0.187 0.605 0.4 0.893 0.605 0.147 0.101 0.591 0.324 0.617 0.504z"></path>
</symbol>
<symbol id="icon-netlify" viewBox="0 0 32 32">
<title>netlify</title>
<path fill="#00c7b7" style="fill: var(--color17, #00c7b7)" d="M22.579 11.359c0.157 0.080 0.291 0.183 0.403 0.306l0.001 0.001 3.132-1.393-2.923-2.895-0.655 3.939zM16.080 8.728c0.146 0.217 0.245 0.477 0.278 0.757l0.001 0.008 4.663 1.976c0.134-0.104 0.292-0.185 0.463-0.234l0.010-0.002 0.765-4.733-2.84-2.979-3.34 5.136zM31.991 16.049l-4.997-4.997-3.397 1.392 8.352 3.549c0 0 0.071 0.056 0.043 0.056zM31.155 16.857l-8.017-3.425c-0.221 0.292-0.55 0.492-0.926 0.542l-0.007 0.001-0.863 5.276c0.248 0.25 0.402 0.594 0.404 0.974v0l4.844 1.016 4.44-4.413v-0.083zM20.533 12.333l-4.357-1.853c-0.29 0.439-0.781 0.725-1.339 0.725-0.018 0-0.037-0-0.055-0.001l0.003 0h-0.265l-3.605 5.569 9.633-4.176v0.013c-0.003-0.033-0.005-0.072-0.005-0.111s0.002-0.078 0.006-0.116l-0 0.005c0.001-0.004 0.001-0.008 0.001-0.012 0-0.016-0.005-0.031-0.015-0.043l0 0zM25.823 22.077l-4.26-0.877c-0.159 0.202-0.366 0.359-0.604 0.455l-0.010 0.003-1.015 6.293 5.916-5.861c0 0-0.013 0.027-0.028 0.027zM19.864 21.645c-0.406-0.17-0.709-0.514-0.819-0.937l-0.002-0.010-7.933-1.629-0.112 0.181 7.197 10.413 0.431-0.432 1.225-7.56c0 0 0.041 0.029 0.013 0.015zM11.276 18.109l7.837 1.615c0.227-0.39 0.628-0.658 1.094-0.696l0.005-0 0.849-5.192-0.18-0.153-9.744 4.176c0.045 0.069 0.091 0.151 0.132 0.236l0.006 0.014zM7.991 19.417l-0.167-0.167-3.383 1.392 1.643 1.629 1.865-2.896zM10.217 19.947c-0.22 0.104-0.478 0.165-0.75 0.167h-0.001c-0.002 0-0.005 0-0.007 0-0.212 0-0.416-0.036-0.606-0.101l0.013 0.004-2.059 2.993 9.020 8.936 1.587-1.573zM8.951 16.425c0.063-0.006 0.136-0.010 0.209-0.010s0.147 0.003 0.219 0.010l-0.009-0.001c0.069-0.009 0.149-0.014 0.229-0.014s0.16 0.005 0.239 0.015l-0.009-0.001 3.647-5.667c-0.275-0.284-0.444-0.672-0.445-1.098v-0c-0.006-0.054-0.010-0.117-0.010-0.181s0.004-0.126 0.011-0.188l-0.001 0.008-4.427-2.047-3.563 3.467zM9.355 6.556l4.316 1.837c0.284-0.235 0.651-0.377 1.052-0.377 0.022 0 0.043 0 0.064 0.001l-0.003-0c0.19 0.002 0.371 0.032 0.542 0.088l-0.013-0.004 3.368-5.263-2.784-2.784-6.543 6.417c0 0-0.013 0.069 0 0.084zM7.741 17.441c0.092-0.17 0.198-0.316 0.321-0.446l-0.001 0.001-3.691-5.512-4.371 4.245zM7.392 18.375l-6.681-1.395 2.937 2.98 3.703-1.573z"></path>
</symbol>
<symbol id="icon-node-dot-js" viewBox="0 0 32 32">
<title>node-dot-js</title>
<path fill="#393" style="fill: var(--color18, #393)" d="M15.997 32c-0.428 0-0.855-0.112-1.229-0.329l-3.915-2.316c-0.584-0.327-0.299-0.443-0.107-0.511 0.78-0.271 0.937-0.333 1.771-0.805 0.087-0.049 0.201-0.031 0.291 0.023l3.008 1.785c0.109 0.060 0.263 0.060 0.363 0l11.727-6.768c0.109-0.063 0.179-0.188 0.179-0.317v-13.533c0-0.132-0.071-0.256-0.183-0.323l-11.721-6.763c-0.108-0.063-0.252-0.063-0.361 0l-11.719 6.764c-0.113 0.065-0.185 0.193-0.185 0.321v13.533c0 0.129 0.072 0.252 0.185 0.313l3.212 1.856c1.743 0.872 2.811-0.155 2.811-1.187v-13.361c0-0.189 0.152-0.337 0.341-0.337h1.487c0.185 0 0.34 0.149 0.34 0.337v13.361c0 2.327-1.267 3.66-3.472 3.66-0.677 0-1.212 0-2.701-0.735l-3.077-1.769c-0.76-0.439-1.229-1.26-1.229-2.139v-13.533c0-0.879 0.471-1.7 1.229-2.137l11.727-6.776c0.743-0.42 1.728-0.42 2.464 0l11.725 6.776c0.76 0.439 1.232 1.259 1.232 2.137v13.533c0 0.879-0.472 1.697-1.232 2.139l-11.725 6.771c-0.373 0.217-0.799 0.329-1.233 0.329zM25.465 18.657c0-2.533-1.712-3.208-5.316-3.684-3.641-0.481-4.012-0.731-4.012-1.583 0-0.704 0.313-1.644 3.011-1.644 2.409 0 3.297 0.519 3.663 2.143 0.032 0.153 0.172 0.265 0.329 0.265h1.521c0.095 0 0.184-0.041 0.248-0.108 0.064-0.072 0.099-0.164 0.089-0.261-0.236-2.797-2.095-4.101-5.851-4.101-3.344 0-5.339 1.411-5.339 3.777 0 2.567 1.984 3.276 5.193 3.593 3.84 0.376 4.137 0.937 4.137 1.692 0 1.311-1.052 1.869-3.523 1.869-3.103 0-3.785-0.779-4.015-2.323-0.027-0.165-0.168-0.287-0.337-0.287h-1.516c-0.188 0-0.339 0.149-0.339 0.337 0 1.976 1.075 4.331 6.207 4.331 3.717 0.001 5.848-1.461 5.848-4.017z"></path>
</symbol>
<symbol id="icon-npm" viewBox="0 0 32 32">
<title>npm</title>
<path fill="#cb3837" style="fill: var(--color19, #cb3837)" d="M0 9.779v10.667h8.888v1.776h7.112v-1.776h16v-10.667zM8.888 18.664h-1.776v-5.333h-1.78v5.333h-3.552v-7.108h7.108zM14.221 18.664v1.781h-3.553v-8.889h7.112v7.109h-3.559zM30.223 18.664h-1.773v-5.333h-1.781v5.333h-1.78v-5.333h-1.773v5.333h-3.561v-7.108h10.669zM14.22 13.333h1.78v3.556h-1.78z"></path>
</symbol>
<symbol id="icon-php" viewBox="0 0 32 32">
<title>php</title>
<path fill="#777bb4" style="fill: var(--color20, #777bb4)" d="M9.347 13.609h-1.259l-0.687 3.531h1.117c0.741 0 1.293-0.14 1.656-0.419 0.363-0.28 0.607-0.745 0.733-1.399 0.123-0.627 0.067-1.069-0.165-1.327-0.233-0.257-0.697-0.387-1.396-0.387zM16 7.584c-8.836 0-16 3.768-16 8.416s7.164 8.417 16 8.417 16-3.769 16-8.417-7.164-8.416-16-8.416zM11.653 17.519c-0.348 0.333-0.767 0.584-1.223 0.735-0.448 0.144-1.020 0.219-1.713 0.219h-1.575l-0.436 2.241h-1.837l1.64-8.435h3.533c1.063 0 1.837 0.279 2.325 0.837 0.488 0.557 0.635 1.336 0.44 2.336-0.082 0.425-0.223 0.803-0.416 1.148l0.010-0.019c-0.191 0.34-0.44 0.653-0.748 0.937zM17.019 18.472l0.724-3.732c0.084-0.424 0.052-0.715-0.091-0.868-0.143-0.155-0.448-0.232-0.916-0.232h-1.456l-0.939 4.833h-1.824l1.64-8.436h1.823l-0.436 2.243h1.624c1.023 0 1.727 0.179 2.115 0.535s0.504 0.933 0.351 1.732l-0.763 3.925zM27.148 15.452c-0.080 0.425-0.221 0.803-0.416 1.148l0.010-0.018c-0.191 0.34-0.44 0.653-0.748 0.937-0.338 0.323-0.746 0.574-1.2 0.728l-0.023 0.007c-0.448 0.144-1.020 0.219-1.715 0.219h-1.573l-0.436 2.243h-1.837l1.64-8.435h3.532c1.063 0 1.837 0.279 2.325 0.837 0.488 0.556 0.636 1.335 0.441 2.335zM23.688 13.609h-1.257l-0.688 3.531h1.117c0.743 0 1.295-0.14 1.656-0.419 0.363-0.28 0.607-0.745 0.735-1.399 0.123-0.627 0.065-1.069-0.167-1.327s-0.699-0.387-1.396-0.387z"></path>
</symbol>
<symbol id="icon-python" viewBox="0 0 32 32">
<title>python</title>
<path fill="#3776ab" style="fill: var(--color21, #3776ab)" d="M19.080 0.24l1.2 0.267 0.973 0.347 0.787 0.4 0.6 0.427 0.453 0.453 0.333 0.453 0.213 0.44 0.133 0.4 0.053 0.347 0.027 0.267-0.013 0.173v7.12l-0.067 0.84-0.173 0.733-0.28 0.613-0.347 0.507-0.4 0.413-0.44 0.333-0.467 0.253-0.467 0.187-0.44 0.133-0.4 0.093-0.347 0.053-0.28 0.027h-7.96l-0.92 0.067-0.787 0.187-0.667 0.293-0.547 0.36-0.44 0.427-0.36 0.467-0.267 0.48-0.2 0.493-0.133 0.467-0.093 0.427-0.053 0.36-0.027 0.28v4.080h-2.973l-0.28-0.040-0.373-0.093-0.427-0.16-0.467-0.24-0.48-0.347-0.48-0.48-0.467-0.613-0.427-0.787-0.373-0.973-0.28-1.173-0.187-1.4-0.067-1.64 0.080-1.627 0.213-1.387 0.32-1.16 0.427-0.947 0.48-0.76 0.533-0.587 0.56-0.44 0.56-0.32 0.533-0.213 0.48-0.133 0.427-0.067 0.32-0.013h0.213l0.080 0.013h10.88v-1.107h-7.787l-0.013-3.667-0.027-0.493 0.067-0.453 0.147-0.413 0.227-0.373 0.333-0.347 0.413-0.307 0.507-0.267 0.587-0.24 0.68-0.2 0.773-0.16 0.853-0.133 0.947-0.080 1.027-0.053 1.12-0.027 1.693 0.067zM10.68 2.88l-0.307 0.44-0.107 0.547 0.107 0.547 0.307 0.453 0.44 0.293 0.547 0.12 0.547-0.12 0.44-0.293 0.307-0.453 0.107-0.547-0.107-0.547-0.307-0.44-0.44-0.293-0.547-0.12-0.547 0.12zM28.133 8.147l0.373 0.080 0.427 0.16 0.467 0.24 0.48 0.36 0.48 0.467 0.467 0.627 0.427 0.787 0.373 0.973 0.28 1.173 0.187 1.387 0.067 1.64-0.080 1.64-0.213 1.387-0.32 1.147-0.427 0.947-0.48 0.76-0.533 0.6-0.56 0.44-0.56 0.32-0.533 0.213-0.48 0.12-0.427 0.067-0.32 0.027-0.213-0.013h-10.96v1.093h7.787l0.013 3.68 0.027 0.48-0.067 0.453-0.147 0.413-0.227 0.387-0.333 0.333-0.413 0.32-0.507 0.267-0.587 0.227-0.68 0.2-0.773 0.173-0.853 0.12-0.947 0.093-1.027 0.053-1.12 0.013-1.693-0.053-1.427-0.187-1.2-0.267-0.973-0.333-0.787-0.4-0.6-0.44-0.453-0.453-0.333-0.453-0.213-0.44-0.133-0.4-0.053-0.333-0.027-0.267 0.013-0.173v-7.12l0.067-0.853 0.173-0.72 0.28-0.613 0.347-0.507 0.4-0.427 0.44-0.32 0.467-0.267 0.467-0.187 0.44-0.133 0.4-0.080 0.347-0.053 0.28-0.027 0.173-0.013h7.787l0.92-0.067 0.787-0.187 0.667-0.28 0.547-0.373 0.44-0.427 0.36-0.467 0.267-0.48 0.2-0.48 0.133-0.467 0.093-0.427 0.053-0.373 0.027-0.28v-4.080h2.787l0.187 0.013zM19.507 27.147l-0.307 0.44-0.107 0.547 0.107 0.547 0.307 0.44 0.44 0.307 0.547 0.107 0.547-0.107 0.44-0.307 0.307-0.44 0.107-0.547-0.107-0.547-0.307-0.44-0.44-0.307-0.547-0.107-0.547 0.107z"></path>
</symbol>
<symbol id="icon-rails" viewBox="0 0 32 32">
<title>rails</title>
<path fill="#c00" style="fill: var(--color22, #c00)" d="M27.846 21.081v1.551h2.642c0.541 0 1.471-0.42 1.503-1.594v-0.6c0-1.003-0.776-1.594-1.503-1.594h-1.317v-0.72h2.61v-1.56h-2.505c-0.646 0-1.511 0.566-1.511 1.62v0.54c0 1.054 0.857 1.594 1.511 1.594 1.818 0.009-0.436 0 1.244 0v0.754zM13.689 20.704c0 0 1.414-0.129 1.414-2.066s-1.713-2.117-1.713-2.117h-3.087v6.111h1.551v-1.474l1.341 1.474h2.295zM13.091 19.452h-1.236v-1.397h1.244c0 0 0.347 0.137 0.347 0.694s-0.356 0.703-0.356 0.703zM18.933 16.564h-1.576c-1.123 0-1.503 1.080-1.503 1.594v4.474h1.576v-1.071h1.479v1.071h1.527v-4.474c0-1.303-1.115-1.594-1.503-1.594zM18.909 19.829h-1.487v-1.483c0 0 0-0.334 0.493-0.334h0.541c0.436 0 0.444 0.334 0.444 0.334v1.483zM21.156 16.564h1.64v6.069h-1.64zM25.099 21.064v-4.5h-1.632v6.069h3.838v-1.569zM0.566 22.632h6.384c0 0-1.22-5.906 2.82-8.297 0.881-0.454 3.685-2.151 8.275 1.449 0.145-0.129 0.283-0.231 0.283-0.231s-4.202-4.449-8.881-3.951c-2.351 0.223-5.244 2.494-6.941 5.494s-1.939 5.537-1.939 5.537zM0.566 22.632h6.384c0 0-1.22-5.906 2.82-8.297 0.881-0.454 3.685-2.151 8.275 1.449 0.145-0.129 0.283-0.231 0.283-0.231s-4.202-4.449-8.881-3.951c-2.351 0.223-5.244 2.494-6.941 5.494s-1.939 5.537-1.939 5.537zM0.566 22.632h6.384c0 0-1.22-5.906 2.82-8.297 0.881-0.454 3.685-2.151 8.275 1.449 0.145-0.129 0.283-0.231 0.283-0.231s-4.202-4.449-8.881-3.951c-2.36 0.223-5.253 2.494-6.949 5.494s-1.931 5.537-1.931 5.537zM13.867 12.081l0.032-0.574c-0.073-0.043-0.275-0.146-0.784-0.3l-0.032 0.566c0.267 0.094 0.525 0.197 0.784 0.309zM13.099 13.898l-0.032 0.54c0.267 0.009 0.533 0.043 0.8 0.103l0.032-0.531c-0.275-0.060-0.541-0.094-0.8-0.111zM10.109 11.224h0.081l-0.162-0.523c-0.251 0-0.509 0.017-0.776 0.051l0.154 0.506c0.234-0.026 0.469-0.034 0.703-0.034zM10.497 14.378l0.186 0.591c0.234-0.12 0.469-0.223 0.703-0.3l-0.178-0.566c-0.275 0.086-0.509 0.18-0.711 0.274zM6.828 12.124l-0.364-0.591c-0.202 0.111-0.412 0.231-0.63 0.369l0.372 0.6c0.21-0.137 0.412-0.266 0.622-0.377zM8.485 15.981l0.388 0.617c0.137-0.214 0.299-0.411 0.477-0.609l-0.364-0.583c-0.186 0.18-0.356 0.377-0.501 0.574zM7.313 18.741l0.655 0.549c0.032-0.334 0.089-0.669 0.17-1.003l-0.582-0.489c-0.105 0.317-0.178 0.634-0.242 0.943zM3.774 14.669l-0.574-0.531c-0.21 0.214-0.412 0.429-0.598 0.643l0.622 0.566c0.17-0.231 0.356-0.463 0.549-0.677zM1.333 18.501l-0.929-0.36c-0.153 0.369-0.323 0.797-0.404 1.029l0.929 0.36c0.105-0.291 0.275-0.711 0.404-1.029zM7.192 20.918c0.016 0.454 0.057 0.823 0.097 1.080l0.97 0.369c-0.073-0.334-0.145-0.711-0.194-1.114z"></path>
</symbol>
<symbol id="icon-react" viewBox="0 0 32 32">
<title>react</title>
<path fill="#61dafb" style="fill: var(--color23, #61dafb)" d="M16 13.148c-1.575 0-2.852 1.277-2.852 2.852s1.277 2.852 2.852 2.852v0c1.575 0 2.852-1.277 2.852-2.852s-1.277-2.852-2.852-2.852v0zM8.011 21.673l-0.629-0.16c-4.691-1.185-7.381-3.197-7.381-5.519s2.691-4.333 7.381-5.519l0.629-0.159 0.177 0.624c0.545 1.86 1.163 3.443 1.899 4.957l-0.082-0.186 0.135 0.284-0.135 0.284c-0.656 1.329-1.275 2.912-1.761 4.551l-0.056 0.22zM7.089 11.933c-3.565 1.001-5.753 2.533-5.753 4.061 0 1.527 2.188 3.059 5.753 4.061 0.512-1.62 1.046-2.965 1.662-4.263l-0.086 0.202c-0.531-1.098-1.066-2.443-1.511-3.828l-0.065-0.234zM23.989 21.673l-0.177-0.625c-0.544-1.859-1.162-3.441-1.9-4.954l0.081 0.184-0.135-0.284 0.135-0.284c0.656-1.329 1.275-2.911 1.762-4.55l0.056-0.221 0.177-0.624 0.631 0.159c4.689 1.185 7.38 3.197 7.38 5.52s-2.691 4.333-7.38 5.519zM23.335 15.995c0.64 1.385 1.169 2.747 1.576 4.061 3.567-1.003 5.753-2.535 5.753-4.061 0-1.528-2.188-3.059-5.753-4.061-0.511 1.619-1.045 2.963-1.662 4.262l0.086-0.2zM7.080 11.927l-0.177-0.623c-1.319-4.648-0.919-7.979 1.097-9.141 1.977-1.141 5.152 0.207 8.479 3.621l0.453 0.465-0.453 0.465c-1.146 1.19-2.207 2.482-3.162 3.853l-0.068 0.103-0.18 0.257-0.313 0.027c-1.875 0.151-3.596 0.439-5.264 0.86l0.218-0.047zM9.608 3.087c-0.357 0-0.673 0.077-0.94 0.231-1.325 0.764-1.56 3.42-0.647 7.004 1.21-0.285 2.681-0.521 4.18-0.658l0.131-0.010c0.894-1.264 1.792-2.37 2.756-3.414l-0.020 0.022c-2.080-2.025-4.049-3.175-5.46-3.175zM22.393 30.236c-0.001 0-0.001 0 0 0-1.9 0-4.34-1.431-6.872-4.031l-0.453-0.465 0.453-0.465c1.146-1.19 2.206-2.482 3.16-3.854l0.068-0.103 0.18-0.257 0.312-0.027c1.875-0.15 3.597-0.438 5.267-0.858l-0.218 0.046 0.629-0.159 0.179 0.624c1.316 4.645 0.917 7.977-1.099 9.139-0.449 0.259-0.988 0.411-1.562 0.411-0.016 0-0.031-0-0.047-0l0.002 0zM16.932 25.728c2.080 2.025 4.049 3.175 5.46 3.175h0.001c0.356 0 0.673-0.077 0.939-0.231 1.325-0.764 1.561-3.421 0.647-7.005-1.212 0.286-2.682 0.522-4.182 0.658l-0.13 0.010c-0.893 1.265-1.791 2.371-2.755 3.416l0.020-0.022zM24.92 11.927l-0.629-0.159c-1.453-0.376-3.175-0.664-4.939-0.806l-0.111-0.007-0.312-0.027-0.18-0.257c-1.021-1.474-2.082-2.766-3.237-3.966l0.009 0.010-0.453-0.465 0.453-0.465c3.325-3.413 6.499-4.761 8.479-3.621 2.016 1.163 2.416 4.493 1.099 9.14zM19.667 9.653c1.523 0.139 2.969 0.364 4.312 0.668 0.915-3.584 0.679-6.24-0.647-7.004-1.317-0.761-3.793 0.405-6.4 2.944 0.943 1.022 1.841 2.128 2.666 3.289l0.069 0.103zM9.608 30.236c-0.014 0-0.030 0-0.046 0-0.574 0-1.113-0.152-1.577-0.419l0.015 0.008c-2.016-1.161-2.416-4.492-1.097-9.139l0.176-0.624 0.629 0.159c1.54 0.388 3.239 0.661 5.047 0.812l0.313 0.027 0.179 0.257c1.022 1.475 2.083 2.767 3.239 3.967l-0.010-0.010 0.453 0.465-0.453 0.465c-2.531 2.6-4.971 4.031-6.868 4.031zM8.021 21.667c-0.915 3.584-0.679 6.241 0.647 7.005 1.316 0.751 3.791-0.407 6.4-2.944-0.943-1.022-1.841-2.129-2.667-3.29l-0.069-0.103c-1.629-0.146-3.099-0.382-4.534-0.711l0.224 0.043zM16 22.504c-1.097 0-2.225-0.048-3.355-0.141l-0.313-0.027-0.18-0.257c-0.544-0.768-1.139-1.691-1.697-2.639l-0.103-0.19c-0.452-0.758-0.971-1.732-1.45-2.728l-0.105-0.243-0.133-0.284 0.133-0.284c0.584-1.239 1.102-2.212 1.658-3.161l-0.103 0.191c0.552-0.955 1.159-1.907 1.8-2.829l0.18-0.257 0.313-0.027c1.005-0.090 2.174-0.142 3.355-0.142s2.35 0.052 3.505 0.153l-0.15-0.011 0.312 0.027 0.179 0.257c1.177 1.666 2.294 3.567 3.252 5.56l0.104 0.24 0.135 0.284-0.135 0.284c-1.058 2.232-2.176 4.133-3.439 5.925l0.083-0.125-0.179 0.257-0.312 0.027c-1.129 0.093-2.259 0.141-3.356 0.141zM13.071 21.059c1.973 0.148 3.885 0.148 5.86 0 1.004-1.445 1.978-3.104 2.827-4.836l0.101-0.228c-0.947-1.958-1.922-3.617-3.012-5.19l0.083 0.126c-0.877-0.071-1.898-0.111-2.929-0.111s-2.052 0.040-3.063 0.119l0.134-0.008c-1.008 1.447-1.983 3.106-2.83 4.84l-0.099 0.224c0.951 1.96 1.926 3.619 3.014 5.193l-0.085-0.13z"></path>
</symbol>
<symbol id="icon-sass" viewBox="0 0 32 32">
<title>sass</title>
<path fill="#c69" style="fill: var(--color24, #c69)" d="M16 0c8.836 0 16 7.164 16 16s-7.164 16-16 16-16-7.164-16-16 7.164-16 16-16zM12.82 21.331c0.233 0.86 0.208 1.664-0.032 2.389l-0.087 0.24c-0.032 0.081-0.069 0.16-0.104 0.235-0.187 0.387-0.435 0.747-0.74 1.080-0.931 1.012-2.229 1.396-2.787 1.073-0.6-0.349-0.301-1.78 0.779-2.92 1.161-1.224 2.827-2.012 2.827-2.012v-0.004zM26.035 6.849c-0.723-2.844-5.436-3.779-9.896-2.193-2.652 0.943-5.525 2.424-7.591 4.356-2.457 2.295-2.848 4.295-2.687 5.131 0.569 2.948 4.609 4.876 6.271 6.307v0.008c-0.489 0.24-4.075 2.039-4.915 3.9-0.9 1.96 0.14 3.361 0.82 3.54 2.1 0.581 4.26-0.48 5.42-2.199 1.12-1.681 1.021-3.841 0.539-4.901 0.661-0.18 1.44-0.26 2.44-0.139 2.801 0.32 3.361 2.080 3.24 2.8-0.12 0.719-0.697 1.139-0.899 1.259-0.2 0.121-0.26 0.16-0.241 0.241 0.020 0.12 0.121 0.12 0.28 0.1 0.22-0.040 1.461-0.6 1.521-1.961 0.060-1.72-1.581-3.639-4.5-3.6-1.2 0.021-1.961 0.121-2.5 0.341-0.040-0.060-0.081-0.1-0.14-0.14-1.8-1.94-5.14-3.3-5-5.88 0.040-0.94 0.38-3.419 6.4-6.419 4.94-2.461 8.881-1.78 9.561-0.28 0.977 2.139-2.101 6.12-7.241 6.699-1.96 0.22-2.98-0.539-3.241-0.82-0.279-0.3-0.319-0.32-0.419-0.259-0.16 0.080-0.060 0.34 0 0.5 0.16 0.4 0.78 1.1 1.861 1.46 0.939 0.3 3.24 0.479 6-0.6 3.099-1.199 5.519-4.54 4.819-7.34z"></path>
</symbol>
<symbol id="icon-twitter" viewBox="0 0 32 32">
<title>twitter</title>
<path fill="#1da1f2" style="fill: var(--color25, #1da1f2)" d="M31.939 6.092c-1.18 0.519-2.44 0.872-3.767 1.033 1.352-0.815 2.392-2.099 2.884-3.631-1.268 0.74-2.673 1.279-4.169 1.579-1.195-1.279-2.897-2.079-4.788-2.079-3.623 0-6.56 2.937-6.56 6.556 0 0.52 0.060 1.020 0.169 1.499-5.453-0.257-10.287-2.876-13.521-6.835-0.569 0.963-0.888 2.081-0.888 3.3 0 2.28 1.16 4.284 2.917 5.461-1.076-0.035-2.088-0.331-2.971-0.821v0.081c0 3.18 2.257 5.832 5.261 6.436-0.551 0.148-1.132 0.228-1.728 0.228-0.419 0-0.82-0.040-1.221-0.115 0.841 2.604 3.26 4.503 6.139 4.556-2.24 1.759-5.079 2.807-8.136 2.807-0.52 0-1.039-0.031-1.56-0.089 2.919 1.859 6.357 2.945 10.076 2.945 12.072 0 18.665-9.995 18.665-18.648 0-0.279 0-0.56-0.020-0.84 1.281-0.919 2.4-2.080 3.28-3.397z"></path>
</symbol>
<symbol id="icon-visualstudiocode" viewBox="0 0 32 32">
<title>visualstudiocode</title>
<path fill="#007acc" style="fill: var(--color26, #007acc)" d="M30.867 3.449l-6.587-3.169c-0.253-0.124-0.55-0.197-0.864-0.197-0.55 0-1.049 0.223-1.409 0.584v0l-12.613 11.507-5.493-4.171c-0.221-0.169-0.501-0.271-0.805-0.271-0.346 0-0.661 0.132-0.897 0.348l-1.762 1.602c-0.269 0.245-0.436 0.596-0.436 0.987s0.167 0.741 0.434 0.984l0.001 0.001 4.764 4.347-4.764 4.347c-0.268 0.245-0.435 0.596-0.435 0.985s0.168 0.742 0.435 0.986l0.001 0.001 1.764 1.601c0.236 0.215 0.551 0.347 0.896 0.347 0.304 0 0.584-0.102 0.808-0.273l-0.003 0.002 5.493-4.171 12.613 11.507c0.36 0.361 0.858 0.584 1.408 0.584 0.314 0 0.611-0.073 0.876-0.203l-0.012 0.005 6.589-3.169c0.675-0.331 1.131-1.013 1.131-1.801 0-0.001 0-0.001 0-0.002v0-21.495c0-0 0-0 0-0 0-0.789-0.457-1.472-1.122-1.797l-0.012-0.005zM24.005 23.264l-9.571-7.264 9.571-7.264z"></path>
</symbol>
<symbol id="icon-webpack" viewBox="0 0 32 32">
<title>webpack</title>
<path fill="#8dd6f9" style="fill: var(--color27, #8dd6f9)" d="M28.021 24.16l-11.553 6.506v-5.068l7.198-3.942zM28.811 23.448v-13.607l-4.228 2.429v8.746zM3.901 24.16l11.553 6.506v-5.068l-7.198-3.942zM3.111 23.448v-13.607l4.228 2.429v8.746zM3.605 8.96l11.849-6.674v4.9l-7.649 4.19zM28.317 8.96l-11.849-6.674v4.9l7.649 4.19zM15.454 24.446l-7.102-3.887v-7.703l7.101 4.083zM16.468 24.446l7.101-3.887v-7.703l-7.101 4.083zM8.833 11.965l7.129-3.904 7.129 3.904-7.129 4.099z"></path>
</symbol>
<symbol id="icon-youtube" viewBox="0 0 32 32">
<title>youtube</title>
<path fill="#f00" style="fill: var(--color28, #f00)" d="M31.327 8.273c-0.386-1.353-1.431-2.398-2.756-2.777l-0.028-0.007c-2.493-0.668-12.528-0.668-12.528-0.668s-10.009-0.013-12.528 0.668c-1.353 0.386-2.398 1.431-2.777 2.756l-0.007 0.028c-0.443 2.281-0.696 4.903-0.696 7.585 0 0.054 0 0.109 0 0.163l-0-0.008c-0 0.037-0 0.082-0 0.126 0 2.682 0.253 5.304 0.737 7.845l-0.041-0.26c0.386 1.353 1.431 2.398 2.756 2.777l0.028 0.007c2.491 0.669 12.528 0.669 12.528 0.669s10.008 0 12.528-0.669c1.353-0.386 2.398-1.431 2.777-2.756l0.007-0.028c0.425-2.233 0.668-4.803 0.668-7.429 0-0.099-0-0.198-0.001-0.297l0 0.015c0.001-0.092 0.001-0.201 0.001-0.31 0-2.626-0.243-5.196-0.708-7.687l0.040 0.258zM12.812 20.801v-9.591l8.352 4.803z"></path>
</symbol>
</defs>
</svg>
